<?xml version="1.0" encoding="UTF-8" standalone="no"?>
<svg
   xmlns:dc="http://purl.org/dc/elements/1.1/"
   xmlns:cc="http://creativecommons.org/ns#"
   xmlns:rdf="http://www.w3.org/1999/02/22-rdf-syntax-ns#"
   xmlns:svg="http://www.w3.org/2000/svg"
   xmlns="http://www.w3.org/2000/svg"
   xmlns:sodipodi="http://sodipodi.sourceforge.net/DTD/sodipodi-0.dtd"
   xmlns:inkscape="http://www.inkscape.org/namespaces/inkscape"
   version="1.1"
   id="Camada_1"
   x="0px"
   y="0px"
   viewBox="0 0 742 182"
   xml:space="preserve"
   sodipodi:docname="LSC-Edit.svg"
   inkscape:version="1.0.2 (1.0.2+r75+1)"
   width="742"
   height="182"><metadata
   id="metadata59"><rdf:RDF><cc:Work
       rdf:about=""><dc:format>image/svg+xml</dc:format><dc:type
         rdf:resource="http://purl.org/dc/dcmitype/StillImage" /><dc:title></dc:title></cc:Work></rdf:RDF></metadata><defs
   id="defs57" /><sodipodi:namedview
   pagecolor="#ffffff"
   bordercolor="#666666"
   borderopacity="1"
   objecttolerance="10"
   gridtolerance="10"
   guidetolerance="10"
   inkscape:pageopacity="0.4745098"
   inkscape:pageshadow="2"
   inkscape:window-width="2560"
   inkscape:window-height="1015"
   id="namedview55"
   showgrid="false"
   inkscape:zoom="1.0625"
   inkscape:cx="399.52941"
   inkscape:cy="194.34639"
   inkscape:window-x="0"
   inkscape:window-y="0"
   inkscape:window-maximized="1"
   inkscape:current-layer="Camada_1"
   inkscape:pagecheckerboard="true" />
<style
   type="text/css"
   id="style2">
	.st0{fill:#0076CE;}
	.st1{fill:#FFFFFF;}
</style>
<rect
   x="29.401312"
   y="311.18146"
   class="st0"
   width="741.96472"
   height="178.21901"
   id="rect4"
   style="fill:none;stroke-width:0.444447" />
<g
   id="g52"
   style="fill:#ffffff"
   transform="translate(-28.516974,-308.23511)">
	<g
   id="g12"
   style="fill:#ffffff">
		<path
   class="st1"
   d="m 152.27,461.53 v 23.14 H 32.47 V 315.58 h 26.22 v 145.95 z"
   id="path6"
   style="fill:#ffffff" />
		<path
   class="st1"
   d="m 170,460.3 15.68,-18.46 c 15.68,14.28 34.19,23.63 58.1,23.63 24.42,0 37.02,-12.31 37.02,-25.84 0,-16 -14.65,-22.15 -44.22,-28.55 -35.99,-8.12 -59.9,-18.46 -59.9,-48.98 0,-28.3 25.71,-49.72 61.19,-49.72 27.25,0 47.56,9.6 64.53,23.87 l -14.91,18.71 c -14.91,-13.04 -32.65,-20.67 -50.64,-20.67 -19.8,0 -33.68,12.06 -33.68,25.6 0,15.75 15.17,21.17 44.22,27.81 35.22,7.88 59.64,19.2 59.64,49.47 0,28.55 -22.62,50.21 -64.27,50.21 -29.57,-0.01 -53.99,-9.85 -72.76,-27.08 z"
   id="path8"
   style="fill:#ffffff" />
		<path
   class="st1"
   d="m 331.96,400 c 0,-47.5 42.16,-87.37 91.78,-87.37 25.19,0 48.33,10.09 65.04,26.58 l -18.25,16.74 c -11.83,-12.31 -28.54,-20.43 -46.79,-20.43 -35.22,0 -65.04,29.54 -65.04,64.49 0,35.2 29.82,64.73 65.04,64.73 18.25,0 34.96,-8.12 46.79,-20.43 l 18.25,16.74 c -16.71,16.24 -39.85,26.58 -65.04,26.58 C 374.12,487.62 331.96,447.5 331.96,400 Z"
   id="path10"
   style="fill:#ffffff" />
	</g>
	<g
   id="g50"
   style="fill:#ffffff">
		<path
   class="st1"
   d="m 558.85,354.99 v 5.62 h -29.1 v -41.07 h 6.37 v 35.45 z"
   id="path14"
   style="fill:#ffffff" />
		<path
   class="st1"
   d="m 589.32,352.72 3.87,3.83 c -2.87,2.93 -8.49,4.78 -13.05,4.78 -8.99,0 -16.61,-6.75 -16.61,-16.26 0,-9.27 7.18,-16.08 16.11,-16.08 9.86,0 15.55,7.17 15.55,18.23 h -25.41 c 0.81,5.14 4.75,8.85 10.3,8.85 3.37,0 7.3,-1.44 9.24,-3.35 z M 569.84,342.5 h 19.36 c -0.69,-4.78 -3.75,-8.25 -9.3,-8.25 -5,0 -9.07,3.22 -10.06,8.25 z"
   id="path16"
   style="fill:#ffffff" />
		<path
   class="st1"
   d="m 629.41,341.9 v 18.71 h -6.05 v -4.24 c -2.37,3.23 -6.81,4.96 -10.74,4.96 -6.87,0 -11.92,-3.83 -11.92,-9.86 0,-6.16 5.81,-10.28 12.92,-10.28 3.18,0 6.62,0.66 9.74,1.67 v -0.96 c 0,-3.89 -1.88,-8.01 -8.31,-8.01 -3.18,0 -6.31,1.2 -9.12,2.57 l -2.25,-4.36 c 4.62,-2.21 8.68,-3.11 12.24,-3.11 8.68,-0.01 13.49,5.26 13.49,12.91 z m -6.06,9.02 v -4.12 c -2.62,-0.78 -5.62,-1.2 -8.8,-1.2 -4.31,0 -7.93,2.33 -7.93,5.68 0,3.35 3.12,5.38 7.18,5.38 3.99,0 8.49,-1.91 9.55,-5.74 z"
   id="path18"
   style="fill:#ffffff" />
		<path
   class="st1"
   d="m 669.31,318.82 v 41.79 h -6.12 v -5.38 c -2.5,3.83 -6.49,6.1 -11.49,6.1 -8.49,0 -14.86,-6.69 -14.86,-16.2 0,-9.44 6.37,-16.14 14.86,-16.14 4.99,0 8.99,2.27 11.49,6.04 v -16.2 h 6.12 z m -6.12,26.31 c 0,-6.46 -4.19,-11 -9.99,-11 -5.93,0 -10.11,4.54 -10.11,11 0,6.46 4.18,11.06 10.11,11.06 5.8,-0.01 9.99,-4.61 9.99,-11.06 z"
   id="path20"
   style="fill:#ffffff" />
		<path
   class="st1"
   d="m 528,414.31 3.81,-4.48 c 3.81,3.47 8.31,5.74 14.11,5.74 5.93,0 8.99,-2.99 8.99,-6.28 0,-3.89 -3.56,-5.38 -10.74,-6.93 -8.74,-1.97 -14.55,-4.48 -14.55,-11.9 0,-6.87 6.24,-12.08 14.86,-12.08 6.62,0 11.55,2.33 15.67,5.8 l -3.62,4.54 c -3.62,-3.17 -7.93,-5.02 -12.3,-5.02 -4.81,0 -8.18,2.93 -8.18,6.22 0,3.83 3.68,5.14 10.74,6.76 8.55,1.91 14.49,4.66 14.49,12.02 0,6.93 -5.5,12.19 -15.61,12.19 -7.18,0 -13.11,-2.39 -17.67,-6.58 z"
   id="path22"
   style="fill:#ffffff" />
		<path
   class="st1"
   d="m 567.09,404.75 c 0,-8.79 7.81,-16.14 17.05,-16.14 9.18,0 16.92,7.35 16.92,16.14 0,8.79 -7.74,16.2 -16.92,16.2 -9.24,0 -17.05,-7.42 -17.05,-16.2 z m 27.79,0 c 0,-5.98 -4.93,-11 -10.74,-11 -5.93,0 -10.87,5.02 -10.87,11 0,6.04 4.93,11.06 10.87,11.06 5.8,0 10.74,-5.02 10.74,-11.06 z"
   id="path24"
   style="fill:#ffffff" />
		<path
   class="st1"
   d="m 608.3,378.44 h 6.12 v 41.79 h -6.12 z"
   id="path26"
   style="fill:#ffffff" />
		<path
   class="st1"
   d="m 651.82,389.33 v 30.91 h -6.18 v -4.48 c -1.93,3.05 -5.87,5.2 -10.24,5.2 -7.12,0 -12.11,-4.96 -12.11,-11.96 v -19.67 h 6.05 v 18.65 c 0,4.6 3.06,7.83 7.43,7.83 4.5,0 8.37,-2.81 8.87,-6.46 v -20.03 h 6.18 z"
   id="path28"
   style="fill:#ffffff" />
		<path
   class="st1"
   d="m 678.18,418.74 c -1.75,1.37 -4.12,2.21 -6.43,2.21 -4.99,0 -8.49,-3.47 -8.49,-8.43 v -18.17 h -4.87 v -5.02 h 4.87 v -8.49 h 6.06 v 8.49 h 7.62 v 5.02 h -7.62 v 17.76 c 0,2.15 1.5,3.71 3.31,3.71 1.38,0 2.62,-0.48 3.31,-1.14 z"
   id="path30"
   style="fill:#ffffff" />
		<path
   class="st1"
   d="m 683.8,380.6 c 0,-1.85 1.62,-3.53 3.75,-3.53 2,0 3.69,1.67 3.69,3.53 0,1.91 -1.69,3.59 -3.69,3.59 -2.13,-0.01 -3.75,-1.68 -3.75,-3.59 z m 0.62,8.73 h 6.18 v 30.91 h -6.18 z"
   id="path32"
   style="fill:#ffffff" />
		<path
   class="st1"
   d="m 697.78,404.75 c 0,-8.79 7.81,-16.14 17.05,-16.14 9.18,0 16.92,7.35 16.92,16.14 0,8.79 -7.74,16.2 -16.92,16.2 -9.24,0 -17.05,-7.42 -17.05,-16.2 z m 27.79,0 c 0,-5.98 -4.94,-11 -10.74,-11 -5.93,0 -10.86,5.02 -10.86,11 0,6.04 4.93,11.06 10.86,11.06 5.81,0 10.74,-5.02 10.74,-11.06 z"
   id="path34"
   style="fill:#ffffff" />
		<path
   class="st1"
   d="m 767.53,400.56 v 19.67 h -6.06 v -18.65 c 0,-4.6 -3.06,-7.83 -7.43,-7.83 -4.5,0 -8.37,2.81 -8.87,6.46 v 20.03 H 739 v -30.91 h 6.18 v 4.48 c 1.94,-3.05 5.87,-5.2 10.24,-5.2 7.12,0 12.11,4.96 12.11,11.95 z"
   id="path36"
   style="fill:#ffffff" />
		<path
   class="st1"
   d="m 528.62,459.29 c 0,-11.54 10.24,-21.22 22.29,-21.22 6.12,0 11.74,2.45 15.8,6.46 l -4.43,4.06 c -2.87,-2.99 -6.93,-4.96 -11.37,-4.96 -8.55,0 -15.8,7.17 -15.8,15.66 0,8.55 7.24,15.72 15.8,15.72 4.43,0 8.49,-1.97 11.37,-4.96 l 4.43,4.06 c -4.06,3.95 -9.68,6.46 -15.8,6.46 -12.05,0 -22.29,-9.74 -22.29,-21.28 z"
   id="path38"
   style="fill:#ffffff" />
		<path
   class="st1"
   d="m 596.94,471.96 3.87,3.83 c -2.87,2.93 -8.49,4.78 -13.05,4.78 -8.99,0 -16.61,-6.75 -16.61,-16.26 0,-9.27 7.18,-16.08 16.11,-16.08 9.86,0 15.55,7.17 15.55,18.23 h -25.42 c 0.81,5.14 4.75,8.85 10.3,8.85 3.38,0 7.31,-1.43 9.25,-3.35 z m -19.48,-10.22 h 19.35 c -0.69,-4.78 -3.75,-8.25 -9.3,-8.25 -5,0 -9.06,3.23 -10.05,8.25 z"
   id="path40"
   style="fill:#ffffff" />
		<path
   class="st1"
   d="m 638.52,460.19 v 19.67 h -6.06 V 461.2 c 0,-4.6 -3.06,-7.83 -7.43,-7.83 -4.5,0 -8.37,2.81 -8.87,6.46 v 20.03 h -6.18 v -30.91 h 6.18 v 4.48 c 1.93,-3.05 5.87,-5.2 10.24,-5.2 7.13,0 12.12,4.96 12.12,11.96 z"
   id="path42"
   style="fill:#ffffff" />
		<path
   class="st1"
   d="m 664.75,478.36 c -1.75,1.37 -4.12,2.21 -6.43,2.21 -4.99,0 -8.49,-3.47 -8.49,-8.43 v -18.17 h -4.87 v -5.02 h 4.87 v -8.49 h 6.06 v 8.49 h 7.62 v 5.02 h -7.62 v 17.76 c 0,2.15 1.5,3.71 3.31,3.71 1.38,0 2.62,-0.48 3.31,-1.14 z"
   id="path44"
   style="fill:#ffffff" />
		<path
   class="st1"
   d="m 695.1,471.96 3.87,3.83 c -2.87,2.93 -8.49,4.78 -13.05,4.78 -8.99,0 -16.61,-6.75 -16.61,-16.26 0,-9.27 7.18,-16.08 16.11,-16.08 9.86,0 15.55,7.17 15.55,18.23 h -25.42 c 0.81,5.14 4.75,8.85 10.3,8.85 3.38,0 7.31,-1.43 9.25,-3.35 z m -19.48,-10.22 h 19.35 c -0.69,-4.78 -3.75,-8.25 -9.3,-8.25 -5,0 -9.05,3.23 -10.05,8.25 z"
   id="path46"
   style="fill:#ffffff" />
		<path
   class="st1"
   d="m 726.63,448.23 v 5.14 c -6.68,0 -11.42,3.53 -11.99,8.91 v 17.58 h -6.18 v -30.91 h 6.18 v 5.92 c 2.06,-4.07 6.44,-6.64 11.99,-6.64 z"
   id="path48"
   style="fill:#ffffff" />
	</g>
</g>
</svg>
