<?xml version="1.0" standalone="no"?>
<!DOCTYPE svg PUBLIC "-//W3C//DTD SVG 1.1//EN" "http://www.w3.org/Graphics/SVG/1.1/DTD/svg11.dtd" >
<svg xmlns="http://www.w3.org/2000/svg">
<metadata>Generated by IcoMoon</metadata>
<defs>
<font id="icomoon" horiz-adv-x="1024">
<font-face units-per-em="1024" ascent="960" descent="-64" />
<missing-glyph horiz-adv-x="1024" />
<glyph unicode="&#x20;" horiz-adv-x="512" d="" />
<glyph unicode="&#xe900;" glyph-name="dds__accessibility" d="M512.096 603.584c49.984 0 90.656 40.672 90.656 90.688s-40.672 90.688-90.656 90.688c-50.016 0-90.688-40.672-90.688-90.688s40.672-90.688 90.688-90.688zM512.096 724.704c16.48 0 30.4-13.952 30.4-30.432s-13.952-30.432-30.4-30.432c-16.512 0-30.432 13.952-30.432 30.432s13.952 30.432 30.432 30.432zM757.248 521.28c-7.968 36.704-40.384 61.184-76.608 57.632l-164.768-15.040-4.864-0.128-167.456 15.168c-36.352 3.136-68.608-20.96-76.608-57.76-4.8-22.368-0.576-44.032 10.688-59.328 10.624-16.736 28.288-27.936 51.136-31.776l66.88-5.184-49.056-220.896c-9.472-39.488 14.4-79.552 56.704-90.112 36.224-9.44 73.376 11.008 86.208 47.68l23.744 68.576 21.696-70.080c10.784-29.312 38.112-49.024 68-49.024 4.576 0 10.304 0 21.472 2.784 37.632 9.408 61.6 49.024 53.344 88.736l-53.28 218.048 69.888 8.384c21.12 1.76 40.64 13.664 52.864 32.832 10.688 18.4 14.272 39.456 10.016 59.328v0.128zM534.208 349.408l-43.648-0.512-58.016-167.552c-1.952-5.696-6.592-11.104-18.208-8.16-6.752 1.696-11.008 9.376-9.088 17.248l48.96 220.512c4.032 15.904 0.512 33.728-8.864 46.752-8.352 12.576-22.496 21.408-38.528 23.68l-69.536 8.288c-4.128 0.672-7.616 2.432-9.984 6.048-2.848 3.904-2.176 9.728-1.536 12.704 1.408 6.72 6.368 11.104 12.32 10.464l170.176-15.264 177.728 15.264c5.6 0.64 10.848-3.776 12.32-10.432 1.376-6.592-0.96-12.512-2.56-15.296-1.6-2.464-4.512-3.968-7.52-4.224l-71.616-8.576c-15.328-2.176-29.472-10.976-37.28-22.688-9.888-13.824-13.408-31.584-9.664-46.752l49.152-220.992c1.568-7.488-2.848-16.096-9.056-17.664l-6.88-0.96c-3.84 0-9.024 3.008-10.976 8.128l-57.728 169.984zM512 899.808c-249.536 0-451.808-202.272-451.808-451.808s202.272-451.808 451.808-451.808 451.808 202.272 451.808 451.808c0 249.536-202.272 451.808-451.808 451.808zM512 56.416c-215.904 0-391.584 175.648-391.584 391.584s175.648 391.584 391.584 391.584 391.584-175.648 391.584-391.584c0-215.904-175.648-391.584-391.584-391.584z" />
<glyph unicode="&#xe901;" glyph-name="dds__add-cir" d="M960.32 506.464c-25.312 201.472-187.872 364.288-389.376 389.792-19.872 2.528-39.584 3.744-58.976 3.744-268.96 0-483.040-234.912-448.256-510.688 25.344-201.44 187.936-364.128 389.376-389.536 19.872-2.528 39.584-3.744 58.912-3.744 268.832-0.064 482.912 234.688 448.32 510.432zM805.888 188.896c-74.4-84.32-181.536-132.704-293.888-132.704-16.992 0-34.272 1.088-51.392 3.264-173.472 21.92-315.264 163.776-337.152 337.312-14.4 114.496 19.168 224.672 94.56 310.144 74.4 84.384 181.536 132.768 293.952 132.768 16.992 0 34.272-1.088 51.392-3.264 173.6-21.984 315.392-163.904 337.152-337.504 14.4-114.432-19.2-224.544-94.624-310.016zM545.888 702.208h-67.776v-220.352h-218.848v-67.776h218.848v-220.416h67.776v220.416h221.92v67.776h-221.92z" />
<glyph unicode="&#xe902;" glyph-name="dds__add-sqr" d="M476.512 193.76h67.776v220.352h221.952v67.776h-221.952v220.416h-67.776v-220.416h-218.784v-67.776h218.784zM60.16 899.84v-903.648h903.648v903.648h-903.648zM903.584 56.416h-783.168v783.168h783.168v-783.168z" />
<glyph unicode="&#xe903;" glyph-name="dds__airplane" d="M964.576 798.656c0.288 27.456-10.048 53.728-28.384 72.032-39.68 39.68-106.688 39.648-146.304 0l-175.936-176-444.672 100.48-109.856-109.856 358.816-187.648-147.936-146.624-120.288 16.448-89.76-89.76 180.416-100.896 100.896-180.48 89.824 89.76-16.448 120.224 148.128 148.128 187.68-358.944 109.984 109.92-102.112 444.608 175.872 175.936c19.104 19.040 29.76 44.864 30.048 72.64zM891.936 768.672l-199.488-199.552 102.112-444.608-28.384-28.384-187.68 359.008-227.264-227.264 16.448-120.224-12.352-12.352-70.368 125.824-125.76 70.368 12.352 12.352 120.096-16.448 227.52 225.536-359.136 187.808 28.416 28.416 444.608-100.416 199.424 199.488c16.32 16.192 44.864 16.256 61.152 0 6.912-6.912 10.848-17.472 10.72-28.864-0.128-11.808-4.64-23.008-12.416-30.72z" />
<glyph unicode="&#xe904;" glyph-name="dds__alarm-bell" d="M512-64c-77.76 0-140.8 63.040-140.8 140.8v0 30.72h281.6v-30.72c-0.352-77.6-63.168-140.448-140.768-140.8h-0.032zM437.76 45.44c12.352-29.184 40.768-49.28 73.856-49.28 0.128 0 0.256 0 0.384 0h-0.032c0.192 0 0.384 0 0.576 0 32.864 0 61.024 20.128 72.832 48.768l0.192 0.512zM949.76 162.56h-877.44c-19.232 0.128-35.616 12.192-42.144 29.12l-0.096 0.32c-1.856 5.056-2.912 10.912-2.912 17.024 0 12.864 4.736 24.608 12.576 33.6l-0.064-0.064 159.36 155.52v248.96c0 172.832 140.128 312.96 312.96 312.96s312.96-140.128 312.96-312.96v0-248.96l158.72-157.44c8.064-8.672 13.024-20.32 13.024-33.12 0-5.088-0.768-9.984-2.24-14.592l0.096 0.352c-6.304-18.016-23.168-30.72-42.976-30.72-0.192 0-0.384 0-0.544 0h0.032zM104.32 226.56h813.44l-155.52 157.44v259.84c0 138.208-112.032 250.24-250.24 250.24s-250.24-112.032-250.24-250.24v0-259.84z" />
<glyph unicode="&#xe905;" glyph-name="dds__alarm-clock" d="M434.464 840.224l0.288 60.224 162.464-0.768-0.288-60.224-162.464 0.768zM512 791.008c-219.328 0-397.728-178.432-397.728-397.664 0-219.392 178.464-397.792 397.728-397.792s397.728 178.464 397.728 397.792c0 219.264-178.432 397.664-397.728 397.664zM512 55.712c-186.112 0-337.504 151.424-337.504 337.568 0 186.080 151.424 337.44 337.504 337.44s337.504-151.36 337.504-337.44c0-186.112-151.36-337.568-337.504-337.568zM541.408 680.512h-60.224v-344.896h247.616v60.224h-187.392z" />
<glyph unicode="&#xe906;" glyph-name="dds__alert-check-cir" d="M296.576 488.96l-42.048-43.2 187.872-182.528 530.56 527.104-42.464 42.72-488.576-485.376zM881.344 541.376c7.712-30.848 12.896-62.048 12.896-93.44 0-215.808-175.584-391.424-391.456-391.424-215.808 0-391.456 175.584-391.456 391.424 0 215.872 175.648 391.52 391.456 391.52 76.128 0 149.216-22.592 212.864-64.16l43.84 43.84c-75.84 52.64-164.576 80.544-256.736 80.544-249.088 0-451.712-202.624-451.712-451.776 0-249.088 202.624-451.648 451.712-451.648s451.712 202.56 451.712 451.648c0 48.064-8.256 96.064-23.84 142.752l-49.28-49.344z" />
<glyph unicode="&#xe907;" glyph-name="dds__alert-check-sqr" d="M298.464 491.68l-41.92-43.264 187.872-182.464 530.496 527.072-42.464 42.72-488.512-485.312zM892.736 56.352h-783.552v783.296h667.040l60.128 60.128h-787.264v-903.52h903.776v615.424l-60.128-60.128z" />
<glyph unicode="&#xe908;" glyph-name="dds__alert-error" d="M699.648 900.992h-375.264l-265.408-265.344v-375.264l265.408-265.408h375.264l265.408 265.408v375.264l-265.408 265.344zM904.8 285.28l-230.112-230.112h-325.376l-230.112 230.112v325.376l230.112 230.112h325.376l230.112-230.112v-325.376zM240.64 478.88h542.112v-60.224h-542.112v60.224z" />
<glyph unicode="&#xe909;" glyph-name="dds__alert-info-cir" d="M512 899.712c-249.472 0-451.712-202.24-451.712-451.712s202.24-451.712 451.712-451.712c249.472 0 451.712 202.24 451.712 451.712s-202.24 451.712-451.712 451.712zM512 56.512c-215.872 0-391.488 175.616-391.488 391.488s175.616 391.488 391.488 391.488 391.488-175.616 391.488-391.488-175.616-391.488-391.488-391.488zM475.872 709.856h72.256v-72.256h-72.256v72.256zM475.872 547.584h72.256v-361.44h-72.256v361.44z" />
<glyph unicode="&#xe90a;" glyph-name="dds__alert-info-sqr" d="M60.224 899.776v-903.552h903.552v903.552h-903.552zM903.52 56.48h-783.072v783.072h783.072v-783.072zM475.872 709.856h72.256v-72.256h-72.256v72.256zM475.872 547.584h72.256v-361.44h-72.256v361.44z" />
<glyph unicode="&#xe90b;" glyph-name="dds__alert-notice" d="M512 858.080l-473.568-820.192h947.104l-473.568 820.192zM512 737.632l369.216-639.456h-738.4l369.216 639.456zM481.376 209.152h61.216v-61.216h-61.216v61.216zM481.376 563.488h61.216v-297.376h-61.216v297.376z" />
<glyph unicode="&#xe90c;" glyph-name="dds__app-window" d="M60.416 800.576v-705.184h903.168v705.184h-903.168zM903.36 740.352v-111.008h-782.688v111.008h782.688zM120.64 155.648v413.44h782.688v-413.44h-782.688z" />
<glyph unicode="&#xe90d;" glyph-name="dds__app-window-search" d="M448.832 203.648h-328.16v413.504h664.288v-42.336c22.528-13.312 42.752-29.632 60.224-48.896v322.752h-784.736v-705.184h449.472c-23.68 16.384-44.096 36.928-61.088 60.16zM120.672 788.416h664.288v-111.008h-664.288v111.008zM845.184 208.352l-31.008 31.008c14.336 19.712 24.704 42.272 31.008 66.432 4.096 15.552 6.88 31.68 6.88 48.544 0 16.928-2.816 33.056-6.88 48.736-9.952 38.624-31.2 72.352-60.224 97.952-34.624 30.592-79.584 49.824-129.312 49.824-108.288 0-196.48-88.128-196.48-196.48 0-60.832 28.384-114.624 71.936-150.72 34.048-28.128 77.056-45.792 124.512-45.792 43.552 0 83.488 14.688 116.064 38.784l149.312-149.312 42.592 42.592-118.368 118.432zM784.96 313.824c-17.408-55.232-68.416-95.648-129.312-95.648-75.104 0-136.256 61.152-136.256 136.256s61.152 136.192 136.256 136.192c60.896 0 111.968-40.416 129.312-95.648 4.032-12.896 6.88-26.336 6.88-40.544s-2.784-27.712-6.88-40.608z" />
<glyph unicode="&#xe90e;" glyph-name="dds__arrange" d="M799.296 613.76l-42.592-42.592 90.464-90.528-300.288 0.192 0.192 301.952 90.176-90.112 42.592 42.592-166.784 166.784-166.784-166.784 42.592-42.592 90.464 90.464-0.192-302.336-302.016 0.192 90.176 90.176-42.592 42.592-166.784-166.784 166.784-166.784 42.592 42.656-90.4 90.4 302.272-0.192-0.192-299.904-90.112 90.112-42.592-42.592 166.784-166.72 166.784 166.72-42.592 42.592-90.528-90.464 0.192 300.288 299.904-0.192-90.112-90.048 42.592-42.656 166.784 166.784z" />
<glyph unicode="&#xe90f;" glyph-name="dds__arrow-cir-down" d="M512 899.264c-249.184 0-451.232-202.016-451.232-451.232 0-249.248 201.984-451.296 451.232-451.296 249.184 0 451.232 202.016 451.232 451.232s-202.016 451.296-451.232 451.296zM512 56.992c-215.584 0-390.976 175.392-390.976 390.976s175.392 390.976 390.976 390.976c215.584 0 390.976-175.392 390.976-390.976s-175.392-390.976-390.976-390.976zM542.112 316.352v370.496h-60.224v-370.496l-123.168 140.832-45.344-39.68 198.656-227.040 198.592 227.040-45.312 39.68z" />
<glyph unicode="&#xe910;" glyph-name="dds__arrow-cir-left" d="M512 899.232c-249.184 0-451.232-202.016-451.232-451.232s202.016-451.232 451.232-451.232 451.232 202.016 451.232 451.232-202.016 451.232-451.232 451.232zM512 57.024c-215.584 0-390.976 175.392-390.976 390.976s175.392 390.976 390.976 390.976c215.584 0 390.976-175.392 390.976-390.976s-175.392-390.976-390.976-390.976zM521.088 601.312l-39.648 45.344-227.040-198.656 227.040-198.656 39.648 45.344-140.704 123.168h370.432v60.224h-370.432z" />
<glyph unicode="&#xe911;" glyph-name="dds__arrow-cir-right" d="M512 899.232c-249.184 0-451.232-202.016-451.232-451.232s202.016-451.232 451.232-451.232 451.232 202.016 451.232 451.232c0 249.184-202.016 451.232-451.232 451.232zM512 57.024c-215.584 0-390.976 175.392-390.976 390.976s175.392 390.976 390.976 390.976 390.976-175.392 390.976-390.976-175.392-390.976-390.976-390.976zM502.848 601.312l140.768-123.168h-370.432v-60.224h370.432l-140.768-123.168 39.648-45.344 227.040 198.656-227.040 198.656z" />
<glyph unicode="&#xe912;" glyph-name="dds__arrow-cir-up" d="M512 899.232c-249.184 0-451.232-202.016-451.232-451.232s202.016-451.232 451.232-451.232c249.184 0 451.232 202.016 451.232 451.232s-202.016 451.232-451.232 451.232zM512 56.96c-215.584 0-390.976 175.392-390.976 390.976s175.392 390.976 390.976 390.976c215.584 0 390.976-175.392 390.976-390.976s-175.392-390.976-390.976-390.976zM313.344 478.464l45.344-39.648 123.168 140.768v-370.496h60.224v370.496l123.136-140.768 45.344 39.648-198.592 227.040z" />
<glyph unicode="&#xe913;" glyph-name="dds__arrow-down" d="M851.712 475.808l-309.6-355.072v780.768h-60.224v-780.768l-309.536 355.072-45.408-39.584 385.088-441.696 385.152 441.696z" />
<glyph unicode="&#xe914;" glyph-name="dds__arrow-export" d="M219.296 200.864l576.512 576.512v-392.736h60.224v498.016h-497.952v-60.224h397.568l-578.912-578.976zM60.192 73.568h903.584v-60.224h-903.584v60.224z" />
<glyph unicode="&#xe915;" glyph-name="dds__arrow-left" d="M965.472 478.112h-780.768l355.072 309.536-39.584 45.408-441.696-385.088 441.696-385.088 39.584 45.344-355.072 309.6h780.768z" />
<glyph unicode="&#xe916;" glyph-name="dds__arrow-right" d="M523.776 833.088l-39.584-45.408 355.072-309.536h-780.768v-60.224h780.768l-355.072-309.6 39.584-45.344 441.696 385.088z" />
<glyph unicode="&#xe917;" glyph-name="dds__arrow-tri-down" d="M60.16 684l451.776-472 451.872 472h-903.648zM201.184 623.776h621.568l-310.816-324.672-310.752 324.672z" />
<glyph unicode="&#xe918;" glyph-name="dds__arrow-tri-left" d="M276 448.064l472-451.872v903.648l-472-451.776zM687.776 137.248l-324.672 310.816 324.672 310.752v-621.568z" />
<glyph unicode="&#xe919;" glyph-name="dds__arrow-tri-right" d="M276 899.84v-903.712l472 451.776-472 451.936zM336.224 758.784l324.672-310.816-324.672-310.752v621.568z" />
<glyph unicode="&#xe91a;" glyph-name="dds__arrow-tri-solid-right" d="M703.904 447.936l-383.808 395.392v-790.656z" />
<glyph unicode="&#xe91b;" glyph-name="dds__arrow-tri-solid-stacked" d="M512 906.4l-421.632-407.2h841.472zM931.84 396.8h-839.68l421.632-407.2z" />
<glyph unicode="&#xe91c;" glyph-name="dds__arrow-tri-up" d="M512.032 684l-451.872-472h903.712l-451.84 472zM512.032 596.896l310.752-324.672h-621.568l310.816 324.672z" />
<glyph unicode="&#xe91d;" glyph-name="dds__arrow-up" d="M897.152 459.808l-385.152 441.696-385.152-441.696 45.408-39.648 309.6 355.136v-780.832h60.224v780.832l309.6-355.136z" />
<glyph unicode="&#xe91e;" glyph-name="dds__assistance" d="M903.872 32.256c-0.416 4.224-11.328 103.68-71.2 199.072l-51.072-32c32.64-51.968 48.864-106.368 56.384-140.032h-651.808c12.832 56.8 50.24 172.576 149.92 237.28l-32.832 50.528c-159.456-103.552-182.144-306.24-183.040-314.848l-3.488-33.248h790.592l-3.424 33.248zM285.12 157.248h151.904v-60.224h-151.904v60.224zM256.032 459.264h60.224v22.592c31.616-76.992 107.392-131.36 195.84-131.36 88.352 0 164.096 54.464 195.712 131.36v-22.528h38.304v-108.8l-125.696-66.272h-50.528v31.328h-60.224v-91.552h125.696l171.008 90.176v331.776c0 150.112-152.16 251.008-294.304 251.008s-294.304-100.896-294.304-251.008v-157.44h38.304v-29.28zM512.096 410.656c-83.552 0-151.488 67.648-151.488 150.784 0 83.2 67.936 150.88 151.488 150.88 83.488 0 151.36-67.712 151.36-150.88 0-83.136-67.872-150.784-151.36-150.784zM512.032 836.768c110.72 0 234.080-78.304 234.080-190.752v-66.272h-24.288c-9.472 107.776-99.392 192.8-209.728 192.8-110.4 0-200.352-85.056-209.856-192.8h-24.288v66.272c0 112.384 123.36 190.752 234.080 190.752z" />
<glyph unicode="&#xe91f;" glyph-name="dds__audio-card" d="M619.936 241.312l85.248-16.064v418.176l-85.248-16.064-94.592-104.032h-87.232v-178.336h87.296l94.528-103.712zM498.368 463.136h53.696l92.896 102.24v-262.016l-92.928 101.952h-53.632v57.856zM964 747.296h-722.24v117.248h-181.76v-60.224h121.536v-167.744h-54.176v-158.816h54.176v-89.792h-54.176v-158.816h54.176v-197.664h60.224v87.104h722.24v628.704zM903.776 178.816h-661.824v508.224h661.824v-508.224z" />
<glyph unicode="&#xe920;" glyph-name="dds__audio-speaker" d="M626.272 812.192l-194.56-214.208h-160.288v-300.576h160.288l194.56-213.6 126.304-23.808v775.936l-126.304-23.808zM692.352 132.672l-35.104 6.624-198.944 218.368h-126.624v180.096h126.688l198.944 218.944 35.104 6.624v-630.656z" />
<glyph unicode="&#xe921;" glyph-name="dds__audio-speaker-levels" d="M212.128 589.408h-151.84v-284.608h151.904l183.232-201.472 121.6-22.88v735.168l-121.664-22.944-183.232-203.232zM456.8 742.88v-589.888l-30.368 5.728-187.584 206.304h-118.368v164.128h118.496l187.52 208.064 30.304 5.664zM823.616 573.248v140.096h-60.224v-140.096h-140.096v-60.224h140.096v-140.096h60.224v140.096h140.096v60.224zM623.296 253.536h340.448v-60.224h-340.448v60.224z" />
<glyph unicode="&#xe922;" glyph-name="dds__audio-speaker-mute" d="M245.472 360.384h-123.648v180.16h126.688l198.944 218.88 35.072 6.624v-240.16l60.224 42.048v270.752l-126.304-23.808-194.56-214.144h-160.288v-300.64h97.568zM482.496 135.456l-35.104 6.624-89.984 98.72-49.824-34.688 108.896-119.52 126.24-23.808v307.008l-60.224-41.92zM841.12 776.256c-38.624 45.952-84.736 86.016-138.496 116.48l-29.696-52.416c45.792-25.952 85.248-59.936 118.592-98.656l49.568 34.56zM874.208 600.544c17.696-48.736 28-100.48 28-153.792 0-160.896-86.688-310.88-226.24-391.36l30.112-52.16c158.112 91.2 256.352 261.12 256.352 443.52 0 65.952-13.248 129.984-36.992 189.504l-51.264-35.712zM689.408 670.368c-16.736 17.696-35.36 33.536-56.064 46.56l-32.096-50.944c13.792-8.736 26.272-19.264 37.952-30.72l50.24 35.104zM776.992 447.008c0 27.040-3.36 53.6-9.632 79.136l-54.080-37.632c2.112-13.6 3.552-27.456 3.552-41.504 0-89.152-43.552-172.64-113.6-217.76l32.64-50.656c87.040 56.128 141.12 158.976 141.12 268.416zM43.36 167.936l903.616 609.824 33.696-49.92-903.616-609.824-33.696 49.92z" />
<glyph unicode="&#xe923;" glyph-name="dds__audio-speaker-off" d="M965.696 618.56l-45.408 39.52-145.696-167.168-150.88 172.992-45.344-39.52 156.256-179.264-156.256-179.328 45.344-39.52 150.88 172.992 145.696-167.168 45.408 39.52-151.2 173.472zM218.464 596.256h-160.16v-298.336h160.224l194.624-214.016 126.304-23.904v776l-126.368-23.84-194.624-215.872zM479.232 763.296v-630.592l-35.072 6.56-198.944 218.88h-126.688v177.888h126.72l198.944 220.704 35.008 6.56z" />
<glyph unicode="&#xe924;" glyph-name="dds__audio-speaker-on" d="M221.824 600.8h-160.224v-300.576h160.288l194.624-213.536 126.24-23.904v776l-126.304-23.84-194.624-214.144zM482.528 766.112v-630.592l-35.104 6.56-198.944 218.4h-126.624v180.096h126.688l198.944 218.944 35.072 6.56zM702.624 892.704l-29.696-52.352c141.44-80.224 229.248-231.008 229.248-393.504 0-160.96-86.688-310.944-226.24-391.36l30.112-52.224c158.112 91.264 256.352 261.184 256.352 443.584 0 184.128-99.584 354.976-259.808 445.856zM776.992 447.040c0 110.592-55.040 214.016-143.648 269.856l-32.096-50.912c71.264-44.928 115.52-128.896 115.52-218.944 0-89.152-43.552-172.64-113.6-217.696l32.576-50.72c87.168 56.128 141.248 158.976 141.248 268.416z" />
<glyph unicode="&#xe925;" glyph-name="dds__award-certificate" d="M122.816 778.4h657.6v-33.216c1.824 0.032 3.552 0.544 5.408 0.544 18.976 0 37.152-2.848 54.816-7.104v100h-778.080v-557.856h519.552v60.224h-459.296v437.376zM785.824 685.504c-96.992 0-175.584-78.624-175.584-175.584 0-37.568 12.032-72.224 32.128-100.768v-351.744l143.456 81.024 143.456-81.024v351.776c20.096 28.544 32.128 63.2 32.128 100.768 0 96.992-78.624 175.584-175.584 175.584zM869.056 160.544l-83.232 47.040-83.232-47.040v195.616c24.864-13.504 52.928-21.888 83.232-21.888s58.368 8.384 83.232 21.888v-195.616zM785.824 394.528c-63.616 0-115.36 51.744-115.36 115.36s51.744 115.36 115.36 115.36 115.36-51.744 115.36-115.36c0-63.616-51.744-115.36-115.36-115.36z" />
<glyph unicode="&#xe926;" glyph-name="dds__award-trophy" d="M924.672 750.976c-24.864 41.856-69.76 70.112-126.144 81.792 0.736 19.712 0.768 33.056 0.736 36.032l-0.352 29.76h-573.792l-0.352-29.76c-0.064-2.88 0-16.256 0.736-36.032-56.384-11.616-101.184-39.936-126.144-81.856-23.136-39.040-28.48-86.496-15.36-137.216 22.4-86.688 95.968-173.728 196.672-232.64 26.432-15.552 54.528-28.48 83.36-39.104 31.488-46.016 70.464-86.56 117.952-118.048v-166.24h-111.136v-60.224h282.368v60.224h-111.072v166.24c47.456 31.488 86.432 72.032 117.952 118.048 28.864 10.592 56.928 23.616 83.36 39.104 100.704 58.976 174.272 145.952 196.672 232.64 13.056 50.72 7.712 98.176-15.424 137.28zM311.040 433.056c-85.952 50.24-150.592 125.216-168.768 195.712-6.272 24.288-9.888 59.936 8.864 91.424 18.432 30.976 50.048 45.248 78.24 52.224 7.648-87.52 28.256-220.224 83.552-340.32-0.608 0.352-1.28 0.608-1.856 0.96zM512 275.072c-193.952 131.808-222.208 462.304-226.368 563.264h452.736c-4.16-100.96-32.416-431.456-226.368-563.264zM881.728 628.768c-18.176-70.464-82.816-145.472-168.768-195.712-0.608-0.352-1.28-0.608-1.856-0.96 55.296 120.096 75.904 252.8 83.552 340.32 28.192-6.912 59.808-21.216 78.24-52.16 18.72-31.552 15.104-67.232 8.864-91.488z" />
<glyph unicode="&#xe927;" glyph-name="dds__barbell" d="M971.584 653.408h-120.48v81.312h-188.544v-196.352h-284.32v196.352h-189.728v-81.312h-120.48v-416.224h120.48v-80.128h189.728v200.576h284.32v-197.568h189.728v77.088h120.48zM188.544 297.408h-60.224v295.744h60.224zM318.048 217.312h-69.28v457.184h69.28zM662.592 417.888h-284.32v60.224h284.32zM792.096 220.32h-69.28v454.176h69.28zM912.576 300.416h-60.224v292.736h60.224z" />
<glyph unicode="&#xe928;" glyph-name="dds__battery-charge" d="M762.048 789.536v120.512h-245.504v-98.56h60.224v38.336h125.024v-59.84h-33.152l-28.832-60.672h190.848v-662.368h-382.784v188.448l-60.224-69.088v-179.616h503.232v782.816zM387.68 277.984l228.192 261.728-131.936 1.824 99.648 209.696h-245.952l-179.872-377.696h130.528l-155.232-387.584 254.624 292.032zM253.184 433.792l122.464 257.248h112.64l-99.072-208.416 95.808-1.344-164.128-188.224 56.288 140.768h-124.064z" />
<glyph unicode="&#xe929;" glyph-name="dds__battery-empty" d="M634.72 779.2v120.48h-245.504v-120.544h-128.832v-782.816h503.264v782.88h-128.896zM449.44 839.424h125.056v-59.808h-125.056v59.808zM703.328 56.608h-382.72v662.336h382.784v-662.336z" />
<glyph unicode="&#xe92a;" glyph-name="dds__battery-horiz-empty" d="M180.864 699.616v-128.864h-120.512v-245.504h120.512v-128.864h782.816v503.232h-782.816zM180.416 385.504h-59.84v125.024h59.84v-125.024zM903.456 256.608h-662.368v382.784h662.336v-382.784z" />
<glyph unicode="&#xe92b;" glyph-name="dds__battery-horiz-full" d="M180.864 699.616v-128.864h-120.512v-245.504h120.512v-128.864h782.816v503.232h-782.816zM180.416 385.504h-59.84v125.024h59.84v-125.024zM903.456 256.608h-662.368v382.784h662.336v-382.784zM843.2 579.168h-541.888v-262.368h541.888v262.368zM782.976 377.056h-421.408v141.888h421.408v-141.888z" />
<glyph unicode="&#xe92c;" glyph-name="dds__battery-horiz-half" d="M180.864 699.616v-128.864h-120.512v-245.504h120.512v-128.864h782.816v503.232h-782.816zM180.416 385.504h-59.84v125.024h59.84v-125.024zM903.456 256.608h-662.368v382.784h662.336v-382.784zM843.2 579.168h-331.2v-262.368h331.2v262.368zM782.976 377.056h-210.72v141.888h210.72v-141.888z" />
<glyph unicode="&#xe92d;" glyph-name="dds__battery-vert-full" d="M634.752 779.136v120.512h-245.504v-120.512h-128.864v-782.816h503.232v782.816h-128.864zM449.472 839.424h125.024v-59.84h-125.024v59.84zM703.392 56.544h-382.784v662.368h382.784v-662.368zM643.168 658.688h-262.336v-541.888h262.368v541.888zM582.944 177.024h-141.888v421.408h141.888v-421.408z" />
<glyph unicode="&#xe92e;" glyph-name="dds__battery-vert-half" d="M634.752 779.136v120.512h-245.504v-120.512h-128.864v-782.816h503.232v782.816h-128.864zM449.472 839.424h125.024v-59.84h-125.024v59.84zM703.392 56.544h-382.784v662.368h382.784v-662.368zM643.168 448h-262.336v-331.2h262.368v331.2zM582.944 177.024h-141.888v210.72h141.888v-210.72z" />
<glyph unicode="&#xe92f;" glyph-name="dds__bluetooth" d="M754.496 627.712l-284.064 284.064v-379.648l-160 148.544-40.96-44.16 200.96-186.624-200.96-190.4 41.024-44.096 159.936 148.48v-379.648l284.064 284.064-193.536 179.744 193.536 179.68zM530.688 766.368l137.024-137.024-137.024-127.264v264.32zM667.712 266.72l-137.024-137.024v264.32l137.024-127.264z" />
<glyph unicode="&#xe930;" glyph-name="dds__bolt" d="M789.92 637.184l-157.696 2.208 122.048 256.928h-286.368l-214.048-449.408h159.296l-179.072-447.232 555.84 637.504zM349.28 507.136l156.64 328.928h153.056l-121.472-255.584 121.6-1.728-237.248-272.032 80.224 200.416h-152.832z" />
<glyph unicode="&#xe931;" glyph-name="dds__bookmark" d="M294.208-3.616l217.824 172.512 217.76-172.512v552.896h-435.552v-552.896zM357.344 486.144h309.312v-359.232l-154.624 122.528-154.688-122.528v359.232zM294.208 735.584h435.552v-60.224h-435.552v60.224zM294.208 899.616h435.552v-60.224h-435.552v60.224z" />
<glyph unicode="&#xe932;" glyph-name="dds__book-open" d="M512 793.152l-451.168 55.488v-744.736l451.168-56.512 451.168 56.512v744.736l-451.168-55.488zM481.888 111.84l-360.8 45.184v623.488l360.8-44.32v-624.352zM685.184 753.76l91.2 11.2v-251.776l-48.608 18.016-42.592-25.248v247.808zM902.912 156.992l-360.8-45.184v624.352l82.816 10.176v-345.984l108.832 64.32 102.816-38.016v345.696l66.368 8.128v-623.488z" />
<glyph unicode="&#xe933;" glyph-name="dds__brand-alienware" d="M862.944 555.264c-3.68 29.472-6.432 55.264-10.144 83.808-6.432 29.472-12.896 55.264-19.328 81.024-6.432 12.896-10.144 29.472-16.576 38.688-6.432 12.896-12.896 25.792-19.328 38.688s-16.576 23.008-25.792 35.904c-10.144 10.144-16.576 19.328-29.472 29.472-19.328 16.576-42.368 35.904-68.16 48.8s-51.552 23.008-81.024 32.224c-29.472 6.432-55.264 10.144-83.808 10.144s-55.264-3.68-83.808-10.144c-29.472-6.432-51.552-16.576-77.344-29.472s-45.12-32.224-64.448-51.552c-10.144-10.144-19.328-19.328-29.472-32.224-6.432-10.144-16.576-19.328-25.792-32.224-6.432-12.896-12.896-25.792-16.576-38.688-6.432-12.896-10.144-25.792-16.576-38.688-10.144-29.472-16.576-51.552-19.328-81.024-6.432-29.472-6.432-55.264-10.144-83.808s-6.432-55.264-6.432-83.808c0-29.472 3.68-55.264 6.432-83.808 3.68-12.896 6.432-29.472 10.144-38.688 3.68-16.576 6.432-29.472 12.896-42.368 19.328-51.552 48.8-100.384 81.024-145.504 16.576-23.008 29.472-45.12 48.8-70.912 16.576-23.008 32.224-45.12 51.584-64.448 10.144-10.144 19.328-19.328 29.472-29.472s23.008-16.576 32.224-25.792c12.896-6.432 25.792-16.576 38.688-19.328 6.432-3.68 12.896-6.432 19.328-6.432s16.576-3.68 19.328-3.68c6.432 0 16.576 0 19.328 3.68 6.432 0 12.896 3.68 19.328 6.432 12.896 6.432 25.792 12.896 38.688 19.328s23.008 16.576 32.224 25.792c10.144 10.144 19.328 19.328 29.472 29.472 16.576 19.328 35.904 42.368 51.552 64.448 16.576 23.008 32.224 45.12 48.8 70.912 29.472 48.8 61.696 96.704 81.024 145.504 6.432 12.896 10.144 25.792 12.896 38.688 6.432 12.896 6.432 29.472 10.144 38.688 6.432 29.472 6.432 55.264 6.432 83.808 6.432 32.224 6.432 61.696 3.68 86.56zM209.12 442.976c0 0 155.616-35.904 256-245.856 0 2.752-268.896 6.432-256 245.856zM561.824 199.808c96.704 209.952 256 245.856 256 245.856 9.216-242.176-256-245.856-256-245.856z" />
<glyph unicode="&#xe934;" glyph-name="dds__brand-dell" d="M512 950.4c-275.2 0-502.4-227.2-502.4-502.4s224-502.4 502.4-502.4 502.4 224 502.4 502.4-227.2 502.4-502.4 502.4zM512-3.2c-249.6 0-451.2 201.6-451.2 451.2s201.6 451.2 451.2 451.2 451.2-201.6 451.2-451.2-201.6-451.2-451.2-451.2zM902.4 380.8v-44.8h-140.8v220.8h51.2v-176h89.6zM246.4 339.2c51.2 0 96 35.2 105.6 83.2l124.8-96 124.8 96v-83.2h140.8v44.8h-92.8v176h-51.2v-83.2l-118.4-96-25.6 22.4 57.6 44.8 60.8 48-35.2 28.8-118.4-92.8-25.6 22.4 118.4 89.6-35.2 28.8-124.8-96c-12.8 48-54.4 83.2-105.6 83.2h-89.6v-220.8c0 0 89.6 0 89.6 0zM204.8 380.8v134.4h38.4c32 0 60.8-28.8 60.8-67.2 0-35.2-25.6-67.2-60.8-67.2 0 0-38.4 0-38.4 0z" />
<glyph unicode="&#xe935;" glyph-name="dds__brand-dellemc" d="M955.104 368.576c30.624 0 55.52 15.328 60.288 48.8l-1.92 1.92h-8.608l-1.92-1.92c-4.8-23.936-20.096-37.312-46.88-37.312-33.504 0-57.408 24.896-57.408 68.896s24.896 68.896 57.408 68.896c26.784 0 42.112-13.408 46.88-35.424l1.92-1.92h8.608l1.92 1.92c-4.8 30.624-28.704 46.88-60.288 46.88-37.312 0-70.816-26.784-70.816-79.424 0-54.56 33.504-81.344 70.816-81.344zM857.472 373.344v151.2l-1.92 1.92h-15.328l-1.92-1.92-57.408-134.944h-1.92l-59.328 134.944-1.92 1.92h-15.328l-1.92-1.92v-151.2l1.92-1.92h8.608l1.92 1.92v128.224h1.92l55.52-128.224 1.92-1.92h11.488l1.92 1.92 55.52 128.224h2.88v-128.224l1.92-1.92h8.608l2.88 1.92zM670.88 373.344v6.688l-1.92 1.92h-82.304l-1.92 1.92v57.408l1.92 1.92h77.504l1.92 1.92v7.648l-1.92 1.92h-77.504l-1.92 1.92v56.448l1.92 1.92h82.304l1.92 1.92v7.648l-1.92 1.92h-95.712l-1.92-1.92v-151.2l1.92-1.92h95.712l1.92 1.92zM535.936 402.048v-30.624h-99.52v155.040h34.464v-124.416h65.088zM436.384 526.464h34.464zM72.736 371.456c36.352 0 66.048 24.896 75.616 58.368l88.032-68.896 88.032 68.896v-58.368h99.52v30.624h-65.088v124.416h-35.424v-58.368l-84.224-66.048-19.136 14.368 40.192 31.584 44.032 34.464-24.896 19.136-84.224-66.048-19.136 14.368 84.224 66.048-24.896 19.136-88.032-68.896c-8.608 33.504-39.232 58.368-75.616 58.368h-63.168v-155.040h64.128zM44.992 402.048v93.792h27.744c22.976 0 42.112-21.056 42.112-46.88s-19.136-46.88-42.112-46.88h-27.744z" />
<glyph unicode="&#xe936;" glyph-name="dds__brand-dell-gaming" horiz-adv-x="2272" d="M466.464 899.744c-249.472 0-451.744-202.24-451.744-451.744s202.24-451.744 451.744-451.744 451.744 202.24 451.744 451.744-202.24 451.744-451.744 451.744zM466.464 41.44c-224.544 0-406.56 182.016-406.56 406.56s182.016 406.56 406.56 406.56 406.56-182.016 406.56-406.56-182.016-406.56-406.56-406.56zM818.816 388.096v-39.52h-128.288v198.88h45.184v-159.36h83.136zM225.6 348.544c46.272 0 85.184 31.616 96.256 74.432l112.512-87.904 112.448 87.84v-74.368h128.288v39.52h-83.136v159.36h-45.184v-74.368l-107.872-84.256-24.128 18.848 107.872 84.256-32.096 25.088-107.872-84.256-24.128 18.848 107.872 84.256-32.096 25.088-112.512-87.904c-11.104 42.816-49.984 74.432-96.256 74.432h-80.608v-198.88h80.608zM190.144 388.096v119.84h35.456c29.984 0 54.272-26.816 54.272-59.904s-24.288-59.904-54.272-59.904h-35.456zM1288.928 348.864h-25.504l-2.848 2.848-2.816 14.176h-2.848c-5.664-5.664-19.84-19.84-51.008-19.84-56.672 0-93.536 42.496-93.536 102.016s36.832 102.048 96.352 102.048c56.672 0 79.36-31.168 85.024-59.52l-2.848-2.848h-34.016l-2.848 2.816c-5.664 11.328-14.176 25.504-45.344 25.504-36.832 0-56.672-28.352-56.672-68.032s19.84-68.032 56.672-68c31.168 0 45.344 17.024 45.344 39.68l-2.848 2.816h-48.16l-2.816 2.848v28.352l2.816 2.848h87.872l2.848-2.848v-102.016l-2.816-2.848zM1490.144 348.864h-25.504l-2.816 2.848-14.176 36.832-5.664 2.816h-70.848l-5.664-2.816-14.176-36.832-2.816-2.848h-25.504l-2.848 2.848v28.352l65.152 164.384 2.848 2.816h36.832l2.816-2.816 65.216-164.384v-28.352l-2.816-2.848zM1407.936 496.256h-2.816l-25.504-68.032 2.816-2.848h48.192l2.848 2.848-25.536 68.032zM1731.072 348.896h-34.016l-2.848 2.816v110.528h-2.848l-45.344-110.528-2.848-2.848h-31.168l-2.816 2.848-45.344 110.528h-2.848v-110.528l-2.848-2.848h-34.016l-2.848 2.816-0.032 192.736 2.848 2.816h42.496l2.848-2.816 56.704-138.88h2.848l56.672 138.88 2.848 2.816h42.496l2.848-2.816 0.032-192.736-2.848-2.848zM1816.128 348.928h-34.016l-2.848 2.848-0.032 192.736 2.848 2.816h34.016l2.816-2.816 0.032-192.736-2.816-2.848zM1867.104 547.296h39.68l5.664-2.816 76.544-130.368h2.848v130.368l2.848 2.848h34.016l2.848-2.848 0.032-192.736-2.848-2.848h-39.68l-5.664 2.848-76.544 130.368h-2.816v-130.368l-2.848-2.848h-34.016l-2.848 2.848-0.032 192.736 2.816 2.848zM2238.432 348.96h-25.504l-2.816 2.848-2.848 14.176h-2.848c-5.664-5.664-19.84-19.84-51.008-19.84-56.672 0-93.536 42.496-93.536 102.016s36.832 102.048 96.352 102.048c56.672 0 79.36-31.168 85.024-59.52l-2.848-2.848h-34.016l-2.816 2.848c-5.664 11.328-14.176 25.504-45.344 25.504-36.832 0-56.672-28.352-56.672-68.032s19.84-68.032 56.704-68c31.168 0 45.344 17.024 45.344 39.68l-2.848 2.816h-48.192l-2.848 2.848v28.352l2.848 2.848h87.872l2.848-2.848v-102.016l-2.848-2.848z" />
<glyph unicode="&#xe937;" glyph-name="dds__brand-delltechnologies" d="M1019.328 429.568c0 12.288-7.008 17.568-20.48 20.48s-21.664 4.096-21.664 13.472c0 7.008 5.28 11.104 15.2 11.104 12.288 0 16.384-5.28 16.384-12.288l1.184-1.184h5.28l1.184 1.184c0 13.472-11.104 18.72-24.576 18.72-15.2 0-22.816-8.192-22.816-17.568 0-11.104 8.192-16.384 21.664-18.72 13.472-2.912 20.48-4.096 20.48-15.2 0-7.008-4.096-12.288-17.568-12.288-12.288 0-17.568 7.008-17.568 15.2l-1.184 1.184h-5.28l-1.184-1.184c0-12.288 9.376-21.664 25.76-21.664 16.96-0.576 25.152 7.616 25.152 18.72zM960.8 443.040l1.184 1.184v4.096c0 18.72-11.104 32.768-29.856 32.768s-29.856-13.472-29.856-32.768v-2.912c0-18.72 9.376-35.104 31.008-35.104 18.72 0 25.76 12.288 26.912 20.48l-1.184 1.184h-5.28l-1.184-1.184c-2.912-8.192-8.192-13.472-18.72-13.472-17.568 0-22.816 16.384-22.816 24.576l1.184 1.184h48.576zM952.608 450.048h-40.96l-1.184 1.184c0 9.376 5.28 22.816 21.664 22.816s21.664-13.472 21.664-22.816l-1.184-1.184zM892.928 413.184v64.96l-1.184 1.184h-5.28l-1.76-1.184v-64.96l1.184-1.184h5.28l1.76 1.184zM892.928 491.584v8.192l-1.184 1.184h-5.28l-1.76-1.184v-8.192l1.184-1.184h5.28l1.76 1.184zM841.44 417.28c-13.472 0-21.664 9.376-21.664 28.672 0 18.72 8.192 28.672 21.664 28.672s21.664-9.376 21.664-28.672c0-19.296-8.192-28.672-21.664-28.672zM863.072 421.376c0-17.568-4.096-31.008-20.48-31.008-12.288 0-16.384 5.28-17.568 12.288l-1.184 1.184h-5.28l-1.184-1.184c1.184-11.104 9.376-18.72 25.76-18.72 17.568 0 28.672 11.104 28.672 38.048v56.16l-1.184 1.184h-4.096l-1.184-1.184-1.184-8.192h-1.184c-2.912 5.28-9.376 11.104-21.664 11.104-18.72 0-28.672-15.2-28.672-35.104 0-20.48 9.376-35.104 28.672-35.104 12.288 0 18.72 5.28 21.664 11.104v0zM774.72 474.048c13.472 0 22.816-11.104 22.816-28.672s-9.376-28.672-22.816-28.672c-13.472 0-22.816 11.104-22.816 28.672 0 18.144 9.376 28.672 22.816 28.672zM774.72 410.272c17.568 0 31.008 12.288 31.008 35.104s-13.472 35.104-31.008 35.104c-17.568 0-31.008-12.288-31.008-35.104s13.472-35.104 31.008-35.104zM734.368 413.184v92.448l-1.76 1.184h-5.28l-1.184-1.184v-92.448l1.184-1.184h5.28l1.76 1.184zM685.216 474.048c13.472 0 22.816-11.104 22.816-28.672s-9.376-28.672-22.816-28.672c-13.472 0-22.816 11.104-22.816 28.672 0 18.144 9.376 28.672 22.816 28.672zM685.216 410.272c17.568 0 31.008 12.288 31.008 35.104s-13.472 35.104-31.008 35.104c-17.568 0-31.008-12.288-31.008-35.104s13.472-35.104 31.008-35.104zM645.984 413.184v40.96c0 17.568-9.376 26.912-24.576 26.912-9.376 0-17.568-4.096-21.664-11.104h-1.184l-1.184 8.192-1.184 1.184h-4.096l-1.184-1.184v-64.96l1.184-1.184h5.28l1.184 1.184v36.864c0 15.2 7.008 24.576 21.664 24.576 11.104 0 17.568-7.008 17.568-20.48v-40.96l1.184-1.184h5.856l1.184 1.184zM576.96 413.184v40.96c0 17.568-9.376 26.912-24.576 26.912-9.376 0-17.568-4.096-21.664-11.104h-1.184v35.104l-1.76 1.76h-5.28l-1.184-1.184v-92.448l1.184-1.184h5.28l1.184 1.184v36.864c0 15.2 7.008 24.576 21.664 24.576 11.104 0 17.568-7.008 17.568-20.48v-40.96l1.184-1.184h5.28l2.336 1.184zM459.936 445.952c0 18.72 9.376 28.672 22.816 28.672s18.72-8.192 20.48-16.384l1.184-1.184h5.856l1.184 1.184c-1.184 13.472-12.288 22.816-28.672 22.816-17.568 0-31.008-11.104-31.008-35.104 0-24.576 13.472-35.104 31.008-35.104 16.384 0 26.912 9.376 28.672 22.816l-1.184 1.184h-5.28l-1.184-1.184c-1.184-8.192-7.008-16.384-20.48-16.384s-23.392 9.376-23.392 28.672zM445.28 443.040l1.184 1.184v4.096c0 19.296-10.528 32.768-29.856 32.768-18.72 0-29.856-13.472-29.856-32.768v-2.912c0-18.72 9.376-35.104 31.008-35.104 18.72 0 25.76 12.288 26.912 20.48l-1.184 1.184h-5.28l-1.184-1.184c-2.912-8.192-8.192-13.472-18.72-13.472-17.568 0-22.816 16.384-22.816 24.576l1.184 1.184h48.576zM437.088 450.048h-40.96l-1.184 1.184c0 9.376 5.28 22.816 21.664 22.816s21.664-13.472 21.664-22.816l-1.184-1.184zM400.832 501.536v4.096l-1.76 1.184h-70.208l-1.184-1.184v-4.096l1.184-1.184h29.856l1.184-1.184v-85.44l1.184-1.184h5.28l1.184 1.184v84.832l1.184 1.184h30.432l1.76 1.76zM327.104 430.752v-18.72h-61.44v94.784h21.664v-76.064h39.776zM43.872 412c22.24 0 40.384 15.2 46.24 35.68l53.824-42.144 53.824 42.144v-35.68h60.864v18.72h-39.776v76.064h-21.664v-35.68l-51.488-40.384-11.712 8.768 24.576 19.296 26.912 21.056-15.2 11.712-51.488-40.384-11.712 8.768 51.488 40.384-15.2 11.712-53.824-42.144c-5.28 20.48-24 35.68-46.24 35.68h-38.624v-94.784h39.2zM27.488 430.752v57.344h16.96c14.048 0 25.76-12.864 25.76-28.672s-11.712-28.672-25.76-28.672h-16.96z" />
<glyph unicode="&#xe938;" glyph-name="dds__brand-delltechnologiesvert" d="M1006.048 479.424v-57.472h-186.848v291.040h66.464v-233.536h120.352zM136.544 421.952c68.256 0 123.968 46.72 141.92 109.6l165.28-129.344 165.28 129.344v-109.6h188.64v57.472h-122.176v233.536h-66.464v-109.6l-158.080-123.968-35.936 26.944 75.456 59.296 82.624 64.672-46.72 35.936-158.080-123.968-35.936 26.944 158.080 123.968-46.72 35.936-165.28-125.76c-16.16 62.88-73.664 109.6-141.92 109.6h-118.56v-291.040h118.56zM86.24 479.424v176.064h52.096c43.104 0 79.040-39.52 79.040-88.032s-35.936-88.032-79.040-88.032h-52.096zM1006.048 233.312c0 17.952-8.992 25.152-28.736 28.736s-30.528 5.376-30.528 19.776c0 8.992 7.2 16.16 21.568 16.16 17.952 0 23.36-7.2 23.36-17.952l1.792-1.792h7.2l1.792 1.792c0 19.776-16.16 26.944-34.144 26.944-21.568 0-32.352-10.784-32.352-25.152 0-16.16 10.784-23.36 30.528-26.944s28.736-5.376 28.736-21.568c0-8.992-5.376-17.952-25.152-17.952-17.952 0-25.152 8.992-25.152 21.568l-1.792 1.792h-7.2l-1.792-1.792c0-17.952 14.368-30.528 35.936-30.528 25.152 0 35.936 10.784 35.936 26.944zM923.392 253.088l1.792 1.792v5.376c0 26.944-16.16 46.72-43.104 46.72s-43.104-19.776-43.104-46.72v-3.584c0-26.944 14.368-50.304 44.928-50.304 26.944 0 35.936 17.952 39.52 28.736l-1.792 1.792h-7.2l-1.792-1.792c-3.584-10.784-10.784-19.776-26.944-19.776-25.152 0-32.352 23.36-32.352 34.144l1.792 1.792h68.256zM912.608 262.048h-57.504l-1.792 1.792c0 14.368 7.2 32.352 30.528 32.352s30.528-19.776 30.528-32.352l-1.792-1.792zM826.4 209.952v93.408l-1.792 1.792h-7.2l-1.792-1.792v-93.408l1.792-1.792h7.2l1.792 1.792zM826.4 321.344v10.784l-1.792 1.792h-7.2l-1.792-1.792v-10.784l1.792-1.792h7.2l1.792 1.792zM752.736 215.36c-19.776 0-30.528 14.368-30.528 41.312s10.784 41.312 30.528 41.312c19.776 0 30.528-14.368 30.528-41.312s-10.784-41.312-30.528-41.312zM783.264 220.736c0-25.152-5.376-44.928-28.736-44.928-17.952 0-23.36 7.2-25.152 17.952l-1.792 1.792h-7.2l-1.792-1.792c1.792-16.16 14.368-26.944 35.936-26.944 25.152 0 41.312 16.16 41.312 53.888v80.832l-1.792 3.584h-5.376l-1.792-1.792-1.792-10.784h-1.792c-3.584 7.2-14.368 16.16-30.528 16.16-26.944 0-41.312-21.568-41.312-50.304s14.368-50.304 41.312-50.304c17.952 0 26.944 7.2 30.528 16.16v0zM657.504 296.192c19.776 0 32.352-16.16 32.352-41.312s-14.368-41.312-32.352-41.312c-19.776 0-32.352 16.16-32.352 41.312 0 26.944 14.368 41.312 32.352 41.312zM657.504 206.368c25.152 0 44.928 17.952 44.928 50.304s-19.776 50.304-44.928 50.304c-25.152 0-44.928-17.952-44.928-50.304 1.792-32.352 19.776-50.304 44.928-50.304zM600.032 209.952v131.136l-1.792 1.792h-7.2l-1.792-1.792v-131.136l1.792-1.792h7.2l1.792 1.792zM529.952 296.192c19.776 0 32.352-16.16 32.352-41.312s-14.368-41.312-32.352-41.312c-19.776 0-32.352 16.16-32.352 41.312 0 26.944 12.576 41.312 32.352 41.312zM529.952 206.368c25.152 0 44.928 17.952 44.928 50.304s-19.776 50.304-44.928 50.304-44.896-17.952-44.896-50.304c0-32.352 19.776-50.304 44.896-50.304zM474.272 209.952v57.472c0 25.152-14.368 39.52-34.144 39.52-14.368 0-25.152-5.376-30.528-16.16h-1.792l-1.792 10.784-3.584 3.584h-5.376l-1.792-1.792v-93.408l1.792-1.792h7.2l1.792 1.792v52.096c0 21.568 8.992 34.144 30.528 34.144 16.16 0 25.152-8.992 25.152-28.736v-57.472l1.792-1.792h7.2l3.584 1.792zM375.456 209.952v57.472c0 25.152-14.368 39.52-34.144 39.52-14.368 0-25.152-5.376-30.528-16.16h-3.584v50.304l-1.792 1.792h-7.2l-1.792-1.792v-131.136l1.792-1.792h7.2l1.792 1.792v52.096c0 21.568 8.992 34.144 30.528 34.144 16.16 0 25.152-8.992 25.152-28.736v-57.504l1.792-1.792h7.2l3.584 1.792zM208.384 256.672c0 26.944 14.368 41.312 32.352 41.312 19.776 0 26.944-10.784 28.736-23.36l3.584-3.584h7.2l1.792 1.792c-1.792 19.776-17.952 32.352-41.312 32.352-25.152 0-44.928-16.16-44.928-50.304s19.776-50.304 44.928-50.304c23.36 0 39.52 14.368 41.312 32.352l-1.792 1.792h-7.2l-1.792-1.792c-1.792-8.992-10.784-21.568-28.736-21.568-19.776 0-34.144 14.368-34.144 41.312zM186.848 253.088l1.792 1.792v5.376c0 26.944-16.16 46.72-43.104 46.72s-43.104-19.776-43.104-46.72v-3.584c0-26.944 14.368-50.304 44.896-50.304 26.944 0 35.936 17.952 39.52 28.736l-1.792 1.792h-7.2l-1.792-1.792c-3.584-10.784-10.784-19.776-26.944-19.776-25.152 0-32.352 23.36-32.352 34.144l1.792 1.792h68.256zM176.064 262.048h-57.472l-1.792 1.792c0 14.368 7.2 32.352 30.528 32.352s30.528-19.776 30.528-32.352l-1.792-1.792zM123.968 335.712v5.376l-1.792 1.792h-100.608l-1.792-1.792v-5.376l1.792-1.792h43.104l1.792-1.792v-122.176l1.792-1.792h7.2l1.792 1.792v122.176l1.792 1.792h43.104l1.792 1.792z" />
<glyph unicode="&#xe939;" glyph-name="dds__brand-skype" d="M916.768 357.632c5.984 26.56 9.504 57.12 9.632 88.448v0.096c0 0.544 0 1.184 0 1.792 0 228.544-185.28 413.824-413.824 413.824 0 0 0 0 0 0v0c-0.992 0-2.144 0-3.328 0-31.040 0-61.28-3.296-90.432-9.568l2.816 0.512c-37.728 29.312-85.728 46.976-137.888 46.976-19.264 0-37.984-2.4-55.808-6.944l1.568 0.352c-80.48-20.736-142.496-83.136-162.304-162.304l-0.32-1.536c-4.032-15.968-6.336-34.336-6.336-53.216 0-52.064 17.568-100 47.072-138.272l-0.384 0.512c-6.432-27.328-10.112-58.72-10.112-90.944 0-228.544 185.28-413.824 413.824-413.824 0.384 0 0.768 0 1.152 0h-0.064c32.032 0.032 63.2 3.552 93.216 10.176l-2.88-0.544c36.48-26.496 82.144-42.4 131.552-42.4 124.416 0 225.28 100.864 225.28 225.28 0 49.376-15.904 95.072-42.848 132.192l0.448-0.64zM524.64 176.928c-132.512 0-240.928 60.224-240.928 130.72-0.064 1.12-0.128 2.432-0.128 3.744 0 31.264 25.344 56.608 56.608 56.608 1.312 0 2.624-0.032 3.904-0.128h-0.16c60.224 0 68.672-90.944 177.696-90.944 51.808 0 85.536 23.488 85.536 52.992s-32.512 43.968-84.928 56.608c-128.896 31.328-240.928 44.576-240.928 175.872 0 120.48 120.48 163.84 220.448 163.84 110.848 0 223.488-43.968 223.488-112.032 0.064-1.088 0.096-2.368 0.096-3.68 0-33.28-26.976-60.224-60.224-60.224-0.896 0-1.76 0.032-2.656 0.064h0.128c-56.608 0-60.224 67.456-151.2 67.456-51.808 0-84.32-13.856-84.32-45.184 0-40.352 41.568-43.968 139.136-66.848 83.712-18.688 180.704-54.208 180.704-156.608 0-120.48-115.648-174.080-225.888-174.080z" />
<glyph unicode="&#xe93a;" glyph-name="dds__brand-windows" d="M436.864 464.576v361.12l-374.656-52.832v-308.288zM470.048 464.576h491.744v435.136l-491.744-69.344zM436.864 431.424h-374.656v-308.288l374.656-52.832zM470.048 431.424v-365.824l491.744-69.344v435.136z" />
<glyph unicode="&#xe93b;" glyph-name="dds__brightness" d="M170.944 149.536l155.2 155.2 42.592-42.592-155.2-155.2-42.592 42.592zM655.264 633.824l155.2 155.2 42.592-42.592-155.2-155.2-42.592 42.592zM59.744 478.112h219.552v-60.224h-219.552v60.224zM744.704 478.112h219.552v-60.224h-219.552v60.224zM170.944 746.464l42.592 42.592 155.232-155.2-42.592-42.592-155.232 155.2zM655.232 262.176l42.592 42.592 155.232-155.2-42.592-42.592-155.232 155.2zM481.888 900.192h60.224v-219.488h-60.224v219.488zM481.888 215.296h60.224v-219.488h-60.224v219.488zM512 637.184c-104.512 0-189.184-84.704-189.184-189.184s84.704-189.184 189.184-189.184c104.512 0 189.184 84.704 189.184 189.184s-84.704 189.184-189.184 189.184zM512 319.040c-71.136 0-128.96 57.888-128.96 128.96s57.824 128.96 128.96 128.96 128.96-57.888 128.96-128.96-57.824-128.96-128.96-128.96z" />
<glyph unicode="&#xe93c;" glyph-name="dds__calculator" d="M173.184 899.776v-903.52h677.632v903.52h-677.632zM790.592 839.52v-188.352h-557.184v188.352h557.184zM233.408 56.48v534.464h557.184v-534.464h-557.184zM419.776 536.128h60.224v-60.224h-60.224v60.224zM419.776 415.456h60.224v-60.224h-60.224v60.224zM419.776 294.816h60.224v-60.224h-60.224v60.224zM419.776 174.24h60.224v-60.224h-60.224v60.224zM299.296 536.128h60.224v-60.224h-60.224v60.224zM299.296 415.456h60.224v-60.224h-60.224v60.224zM299.296 294.816h60.224v-60.224h-60.224v60.224zM299.296 174.24h60.224v-60.224h-60.224v60.224zM540.256 536.128h60.224v-60.224h-60.224v60.224zM540.256 415.456h60.224v-60.224h-60.224v60.224zM540.256 294.816h60.224v-60.224h-60.224v60.224zM540.256 174.24h60.224v-60.224h-60.224v60.224zM660.736 536.128h60.224v-60.224h-60.224v60.224zM660.736 415.456h60.224v-60.224h-60.224v60.224zM660.736 294.816h60.224v-180.896h-60.224v180.896z" />
<glyph unicode="&#xe93d;" glyph-name="dds__calendar" d="M363.744 526.080h111.68v-60.224h-111.68v60.224zM548.544 526.080h111.68v-60.224h-111.68v60.224zM733.408 526.080h111.68v-60.224h-111.68v60.224zM178.912 365.792h111.68v-60.224h-111.68v60.224zM363.744 365.792h111.68v-60.224h-111.68v60.224zM548.544 365.792h111.68v-60.224h-111.68v60.224zM733.408 365.792h111.68v-60.224h-111.68v60.224zM178.912 205.504h111.68v-60.224h-111.68v60.224zM363.744 205.504h111.68v-60.224h-111.68v60.224zM708.384 831.712v68.064h-60.224v-68.064h-275.456v68.064h-60.224v-68.064h-252.192v-835.456h903.456v835.456h-255.328zM312.48 771.456v-53.056h60.224v53.056h275.392v-53.056h60.224v53.056h195.168v-96.384h-783.008v96.384h191.968zM120.512 56.416v558.432h783.008v-558.432h-783.008z" />
<glyph unicode="&#xe93e;" glyph-name="dds__calendar-search" d="M119.968 174.112v473.216h664.32v-121.92c22.464-13.056 42.752-28.96 60.224-48v362.24h-217.856v59.136h-60.224v-59.136h-231.296v59.136h-60.224v-59.136h-215.168v-725.76h425.92c-19.456 17.472-35.968 37.632-49.408 60.224h-316.288zM119.968 779.424h154.912v-38.176h60.224v38.176h231.296v-38.176h60.224v38.176h157.632v-71.872h-664.32v71.872zM844.544 159.584l-29.632 29.632c13.248 18.176 23.136 38.848 29.632 60.896 5.056 17.216 8.256 35.232 8.256 54.080 0 18.56-3.424 36.192-8.256 53.184-10.592 37.344-31.68 69.888-60.224 94.624-34.464 29.952-78.848 48.672-127.936 48.672-108.288 0-196.48-88.128-196.48-196.48 0-50.112 19.392-95.36 50.368-130.112 26.080-29.28 60.416-50.656 99.616-60.224 15.008-3.68 30.368-6.144 46.432-6.144 15.776 0 30.912 2.528 45.6 6.144 25.792 6.4 49.76 17.28 70.464 32.64l149.312-149.312 42.592 42.592-119.744 119.808zM784.288 259.168c-14.464-40.96-47.776-72.64-89.696-85.056-12.224-3.616-24.864-6.144-38.24-6.144s-26.080 2.528-38.24 6.144c-56.448 16.672-97.952 68.352-97.952 130.112 0 75.104 61.152 136.256 136.256 136.256 59.264 0 109.28-38.24 127.936-91.2 4.992-14.144 8.256-29.152 8.256-45.056s-3.328-30.848-8.32-45.056z" />
<glyph unicode="&#xe93f;" glyph-name="dds__camera" d="M512.256 615.488c-115.904 0-210.208-94.304-210.208-210.208s94.304-210.208 210.208-210.208 210.208 94.304 210.208 210.208-94.304 210.208-210.208 210.208zM512.256 255.296c-82.688 0-149.952 67.264-149.952 149.952s67.264 149.984 149.952 149.984 149.952-67.264 149.952-149.984-67.264-149.984-149.952-149.984zM815.968 494.432c23.2 0 42.080 18.848 42.080 42.048s-18.88 42.080-42.080 42.080-42.048-18.88-42.048-42.080 18.848-42.048 42.048-42.048zM794.656 680.768l-135.712 158.624h-281.664l-146.72-158.624h-170.144v-624.192h903.168v624.192h-168.928zM903.36 116.832h-782.72v503.712h136.256l146.688 158.624h227.552l135.712-158.624h136.48v-503.712z" />
<glyph unicode="&#xe940;" glyph-name="dds__cancelled" d="M830.112 766.112c-87.808 87.808-203.008 131.808-318.112 131.808s-230.272-43.904-318.112-131.808c-175.712-175.712-175.712-460.544 0-636.192 87.808-87.808 203.008-131.808 318.112-131.808s230.272 43.904 318.112 131.808c175.648 175.712 175.648 460.544 0 636.192zM236.448 723.52c73.6 73.6 171.424 114.144 275.52 114.144 93.952 0 182.624-33.312 253.184-93.856l-548.992-548.992c-60.544 70.528-93.792 159.2-93.792 253.184 0 104.096 40.544 201.92 114.080 275.52zM787.552 172.48c-73.6-73.6-171.424-114.144-275.52-114.144-93.952 0-182.624 33.312-253.184 93.856l548.992 548.992c60.608-70.528 93.856-159.264 93.856-253.184-0.064-104.096-40.608-201.92-114.144-275.52z" />
<glyph unicode="&#xe941;" glyph-name="dds__capture-image" d="M695.712 417.888v60.224h-153.6v153.6h-60.224v-153.6h-153.6v-60.224h153.6v-153.6h60.224v153.6zM903.456 56.544h-60.224v-60.224h120.48v120.48h-60.224zM567.168 56.544h165.632v-60.224h-165.632v60.224zM291.104 56.544h165.632v-60.224h-165.632v60.224zM120.544 116.768h-60.224v-120.48h120.48v60.224h-60.224zM60.288 392.832h60.224v-165.632h-60.224v165.632zM60.288 668.832h60.224v-165.6h-60.224v165.6zM60.288 779.232h60.224v60.224h60.224v60.224h-120.48zM567.232 899.712h165.6v-60.224h-165.6v60.224zM291.168 899.712h165.632v-60.224h-165.632v60.224zM843.232 899.712v-60.224h60.224v-60.224h60.224v120.48zM903.456 668.832h60.224v-165.632h-60.224v165.632zM903.456 392.768h60.224v-165.6h-60.224v165.6z" />
<glyph unicode="&#xe942;" glyph-name="dds__card-credit" d="M60.288 770.4v-644.832h903.424v644.832h-903.424zM120.544 586.528h782.944v-46.592h-782.944v46.592zM903.456 185.824h-782.944v293.888h782.944v-293.888zM120.544 646.752v63.424h782.944v-63.424h-782.944zM180.704 326.368h112.416v-60.224h-112.416v60.224zM353.344 326.368h331.648v-60.224h-331.648v60.224z" />
<glyph unicode="&#xe943;" glyph-name="dds__card-info" d="M60.224 762.368v-628.704h903.52v628.704h-903.52zM903.52 193.888h-783.072v508.224h783.072v-508.224zM512 642.080h-331.552v-388.128h331.552v388.128zM451.776 314.176h-211.072v267.648h211.072v-267.648zM572.128 642.080h270.688v-60.224h-270.688v60.224zM572.128 478.112h270.688v-60.224h-270.688v60.224zM572.128 314.176h270.688v-60.224h-270.688v60.224z" />
<glyph unicode="&#xe944;" glyph-name="dds__card-swipe-left" d="M510.752 408.352l-224.128-0.544 40.704 40.96-42.72 42.464-113.728-114.4 118.368-117.696 42.464 42.72-45.952 45.728 225.024 0.544zM60.192 758.592v-621.216h903.584v621.216h-903.584zM903.616 698.368v-69.92h-783.168v69.92h783.168zM120.448 197.568v370.624h783.104v-370.624h-783.104z" />
<glyph unicode="&#xe945;" glyph-name="dds__card-swipe-right" d="M60.192 758.592v-621.216h903.584v621.216h-903.584zM903.552 698.368v-69.92h-783.104v69.92h783.104zM120.448 197.568v370.624h783.104v-370.624h-783.104zM692.544 453.344l45.952-45.728-225.088-0.544 0.128-60.224 224.064 0.544-40.704-40.896 42.72-42.464 113.728 114.4-118.304 117.632z" />
<glyph unicode="&#xe946;" glyph-name="dds__carry-case" d="M690.528 671.36v143.776h-357.088v-143.776h-273.216v-590.496h903.52v590.496h-273.216zM393.696 754.912h236.608v-83.552h-236.608v83.552zM903.52 611.104v-181.44h-361.408v51.616h-60.224v-51.616h-361.408v181.44h783.072zM120.48 141.088v228.416h361.408v-59.456h60.224v59.456h361.408v-228.416h-783.072z" />
<glyph unicode="&#xe947;" glyph-name="dds__cart" d="M963.776 725.088h-740.896l-48.192 156.608h-114.432v-60.224h66.272l186.72-644.512h499.968v60.224h-451.776l-30.112 102.4h554.176l78.304 385.504zM313.216 399.808l-78.304 265.024h650.528l-54.208-265.024h-518.016zM771.008 219.104c-54.208 0-102.4-42.176-102.4-102.4s42.176-102.4 102.4-102.4 102.4 42.176 102.4 102.4-48.192 102.4-102.4 102.4zM771.008 74.528c-24.096 0-42.176 18.080-42.176 42.176s18.080 42.176 42.176 42.176 42.176-18.080 42.176-42.176-18.080-42.176-42.176-42.176zM349.376 219.104c-54.208 0-102.4-42.176-102.4-102.4s42.176-102.4 102.4-102.4 102.4 42.176 102.4 102.4-48.192 102.4-102.4 102.4zM349.376 74.528c-24.096 0-42.176 18.080-42.176 42.176s18.080 42.176 42.176 42.176 42.176-18.080 42.176-42.176-18.080-42.176-42.176-42.176z" />
<glyph unicode="&#xe948;" glyph-name="dds__chain-link" d="M612.576 371.328l-20.768 15.808 20.928-15.872c54.656 72.224 40.576 175.776-31.168 230.688l-21.76 16.896c-72.16 54.56-175.712 40.544-230.816-31.456l-232.416-305.376c-54.592-72.16-40.544-175.648 31.168-230.56l21.76-16.928c29.696-22.432 64.64-33.248 99.296-33.248 49.76 0 99.072 22.304 131.52 64.704l97.184 127.776-48 36.448-97.12-127.68c-34.88-45.664-100.576-54.592-146.24-20.16l-21.664 16.8c-45.632 34.976-54.592 100.704-20 146.464l232.288 305.216c20.704 26.976 52.064 41.12 83.648 41.12 21.952 0 44.064-6.816 62.72-20.96l21.664-16.8c45.632-34.944 54.592-100.672 20-146.56l-0.256 0.16zM563.424 243.84c-34.72 0-69.664 10.816-99.296 33.248l-21.76 16.928c-59.52 45.632-80.896 126.016-51.712 195.264 5.184 12.448 12.064 24.416 20.48 35.488l48-36.352c-5.28-7.008-9.664-14.56-12.896-22.4-18.592-44.192-5.056-95.232 32.896-124.32l21.664-16.8c45.536-34.496 111.36-25.44 146.304 20.192l232.416 305.184c34.592 45.824 25.6 111.584-20.064 146.56l-21.664 16.832c-45.6 34.528-111.424 25.472-146.24-20.192l-96.928-127.584-48 36.48 96.992 127.648c55.104 71.968 158.592 86.016 230.88 31.456l21.76-16.96c71.648-54.848 85.76-158.368 31.232-230.624l-232.544-305.344c-32.48-42.4-81.696-64.704-131.52-64.704z" />
<glyph unicode="&#xe949;" glyph-name="dds__charge-back" d="M547.776 900c-229.728 0-416-186.24-416-416 0-43.904 6.912-86.144 19.52-125.888l49.28 49.28c-5.408 24.704-8.544 50.304-8.544 76.608 0 196.128 159.552 355.744 355.744 355.744s355.744-159.616 355.744-355.744c0-196.192-159.552-355.744-355.744-355.744-21.44 0-42.336 2.24-62.72 5.888v-60.896c20.48-3.136 41.312-5.248 62.72-5.248 229.728 0 416 186.24 416 416s-186.24 416-416 416zM525.44 237.536h55.488v48c24.288 4.384 44.64 14.4 60.832 29.76 21.024 20 31.552 46.208 31.552 77.76 0 15.616-2.4 29.504-7.168 41.44-4.832 12.224-12.16 23.296-21.984 33.12-9.216 9.28-20.96 17.472-34.816 24.448-12.768 6.336-30.304 13.376-53.6 21.312-20.608 7.040-36.576 13.984-47.392 20.672-9.024 5.536-15.424 11.456-18.848 17.6-2.336 3.968-5.12 12-5.12 26.976 0 16.32 5.312 28.608 16.576 38.72 23.84 21.152 74.464 21.92 97.472-2.592 11.936-12.704 17.76-29.632 17.76-51.552v-21.088h55.168v21.088c0 36.576-9.952 66.304-29.504 88.352-16.096 18.080-37.408 29.632-63.616 34.464v47.584h-55.424v-47.392c-23.904-3.968-44.384-13.664-60.96-28.928-21.696-20.064-32.704-46.56-32.704-78.976 0-19.584 3.808-36.672 11.264-51.008 7.52-14.336 18.912-26.912 33.92-37.28 13.92-9.632 34.4-19.040 62.528-28.8 24.288-8.448 42.752-16.384 54.688-23.68 10.24-6.272 17.28-12.64 21.024-19.104 3.744-6.336 5.6-15.072 5.6-25.856 0-15.296-5.664-27.392-17.664-37.952-12.576-11.136-28.608-16.512-48.896-16.512-25.6 0-44.8 6.144-58.848 18.784-13.312 12.032-19.808 28.864-19.808 51.392v21.088h-55.168v-21.088c0-37.632 11.552-68 34.464-90.24 18.56-17.952 43.136-29.152 73.248-33.44v-47.168zM235.232 210.144h-69.344l118.976 118.976-38.72 38.656-185.888-185.888 185.888-185.888 38.72 38.72-120.704 120.64h260.64v54.752h-103.712z" />
<glyph unicode="&#xe94a;" glyph-name="dds__charge-back-folder" d="M963.744 318.848c-0.128 17.344-2.336 34.144-5.12 50.784-8.256 48.96-27.296 93.952-55.104 132.64-58.080 80.896-152.384 134.080-259.616 134.080-170.944 0-309.376-134.4-318.336-303.040-0.352-5.792-1.76-11.2-1.76-17.056 0-2.528 0.672-4.864 0.736-7.36 1.28-53.504 16.192-103.072 40.544-146.976 12.032-21.76 26.144-41.984 42.752-60.224 58.56-64.384 142.144-105.472 236-105.472s177.44 41.152 236 105.472c42.24 46.432 70.464 104.992 79.584 170.176 1.92 13.792 4.096 27.52 4.224 41.792 0 0.896 0.256 1.696 0.256 2.592s-0.128 1.76-0.128 2.592zM903.456 313.856c-0.48-57.056-19.936-109.28-51.744-151.904-17.28-23.2-37.76-43.904-61.696-60.224-41.696-28.48-91.968-45.248-146.176-45.248s-104.512 16.736-146.176 45.248c-23.904 16.32-44.384 37.056-61.696 60.224-32.224 43.296-51.968 96.384-51.968 154.336 0 143.296 116.576 259.84 259.84 259.84 142.464 0 258.24-115.296 259.616-257.376v-4.864zM120.384 162.016v677.536h247.072l83.36-120.352h452.672v-125.696c22.88-21.44 43.2-45.664 60.224-72.16v258.112h-481.088l-83.712 120.352h-338.752v-797.984h270.048c-12.96 18.912-24.096 39.104-33.536 60.224h-176.256zM721.472 307.040c-7.52 7.52-16.992 14.208-28.128 19.744-9.632 4.832-23.552 10.432-41.728 16.64-15.552 5.312-27.488 10.496-35.424 15.36-6.272 3.904-10.784 7.936-12.96 11.808-1.216 2.176-3.328 7.456-3.328 18.432 0 11.008 3.616 19.328 11.264 26.144 16.448 14.624 52.224 15.232 68.192-1.696 8.32-8.864 12.352-20.736 12.352-36.384v-21.088h52.16v21.088c0 29.344-8.064 53.248-23.904 71.264-12.288 13.792-28.32 22.88-47.712 27.232v37.6h-52.416v-37.28c-17.696-3.616-32.896-11.2-45.312-22.72-17.824-16.32-26.784-37.952-26.784-64.32 0-15.776 3.072-29.76 9.152-41.44 6.144-11.68 15.424-21.984 27.776-30.464 11.136-7.648 27.168-15.072 49.152-22.72 18.56-6.4 32.416-12.416 41.216-17.76 8.928-5.408 12.832-10.048 14.528-13.024 2.336-4.032 3.616-9.952 3.616-17.472 0-10.24-3.808-18.368-11.872-25.536-8.8-7.776-20.064-11.52-34.4-11.52-18.432 0-32.16 4.352-41.984 13.184-9.216 8.32-13.728 20.064-13.728 35.968v21.088h-52.224v-21.088c0-30.304 9.376-54.816 28-72.896 14.080-13.728 32.512-22.592 54.88-26.368v-36.992h52.352v37.76c17.888 3.84 33.056 11.68 45.312 23.36 17.152 16.32 25.92 37.632 25.92 63.36 0 12.576-1.92 23.904-5.888 33.792-4.032 9.952-10.144 19.040-18.016 26.912z" />
<glyph unicode="&#xe94b;" glyph-name="dds__charge-back-report" d="M444.352 492.096c7.52-14.592 19.2-27.36 34.56-37.952 14.208-9.824 35.072-19.392 63.68-29.344 24.864-8.608 43.776-16.672 56.032-24.16 10.432-6.4 17.696-12.96 21.568-19.712 3.808-6.432 5.728-15.36 5.728-26.56 0-15.776-5.792-28.192-18.080-39.040-13.056-11.456-29.44-16.992-50.304-16.992-26.208 0-45.888 6.272-60.288 19.264-13.728 12.416-20.352 29.632-20.352 52.768v21.088h-55.584v-21.088c0-38.304 11.872-69.216 35.104-91.744 18.848-18.368 43.968-29.76 74.88-34.048v-48.064h55.712v48.896c24.864 4.448 45.728 14.624 62.208 30.304 21.312 20.352 32.16 46.976 32.16 79.104 0 15.84-2.4 30.048-7.296 42.24-4.928 12.288-12.416 23.616-22.4 33.6-9.504 9.504-21.44 17.824-35.488 24.864-13.024 6.432-30.848 13.568-54.56 21.696-21.088 7.104-37.344 14.208-48.416 21.024-9.28 5.728-15.84 11.808-19.456 18.144-2.4 4.16-5.248 12.352-5.248 27.712 0 16.8 5.408 29.44 17.056 39.808 12.224 10.912 28.672 16.128 50.304 16.128s37.952-6.144 49.888-18.848c12.224-13.056 18.176-30.368 18.176-52.96v-21.088h55.552v21.088c0 37.152-10.112 67.392-30.048 89.92-16.384 18.496-38.24 30.24-65.056 35.104v48.672h-55.776v-48.32c-24.512-4.032-45.408-13.92-62.272-29.44-22.112-20.352-33.376-47.36-33.376-80.288 0-19.808 3.84-37.216 11.456-51.872zM433.696 900.352l-222.944-0.608v-133.376h-76.064v-60.224h76.064v-59.872h-76.064v-60.224h76.064v-276.128h-76.064v-60.224h76.064v-59.872h-76.064v-60.224h76.064v-133.952h678.56v904.736h-455.616zM829.088 55.872h-558.080v73.728h55.968v60.224h-55.968v59.872h55.968v60.224h-55.968v276.128h55.968v60.224h-55.968v59.872h55.968v60.224h-55.968v73.312l162.688 0.416h395.392v-784.256z" />
<glyph unicode="&#xe94c;" glyph-name="dds__chart-bars-axis" d="M806.304 698.528h60.224v-548.128h-60.224v548.128zM638.208 431.328h60.224v-280.992h-60.224v280.992zM458.752 482.816h60.224v-332.448h-60.224v332.448zM267.2 805.632h60.224v-655.232h-60.224v655.232zM145.824 55.936v844.384h-60.224v-904.608h852.8v60.224z" />
<glyph unicode="&#xe94d;" glyph-name="dds__chart-bars-box" d="M775.072 671.648h60.224v-447.296h-60.224v447.296zM628.032 422.144h60.224v-197.824h-60.224v197.824zM481.6 464.192h60.224v-239.808h-60.224v239.808zM335.168 557.088h60.224v-332.736h-60.224v332.736zM188.736 340.832h60.224v-116.48h-60.224v116.48zM60.192 804.704v-713.44h903.584v713.44h-903.584zM903.552 151.52h-783.104v592.96h783.104v-592.96z" />
<glyph unicode="&#xe94e;" glyph-name="dds__chart-insights" d="M839.392-3.776h60.224v551.040l-60.224 58.848zM665.6-3.776h60.224v492.064l-60.224-67.84zM492.48 225.984v-229.728h60.224v297.216l-60.064-67.584zM319.296-3.776h60.224v330.4l-60.224 53.728zM146.176-3.776h60.224v273.344l-60.224-63.68zM974.72 899.776l-275.648-72.288 89.344-87.296-305.696-344.128-174.848 155.904-258.592-273.152 43.776-41.44 218.368 230.688 176.32-157.152 343.872 387.072 77.344-75.52 65.792 277.312zM874.912 739.904l-57.6 56.256 75.648 19.808-18.080-76.064z" />
<glyph unicode="&#xe94f;" glyph-name="dds__chat-dots" d="M60.832 915.968v-662.112l341.344 0.352v-274.176l268.704 274.24 292.256 0.544v661.152h-902.336zM902.912 314.944l-257.376-0.48-183.104-186.912v186.976l-341.344-0.352v541.568h781.856v-540.8zM321.536 520.096c33.12 0 60.064 26.912 60.064 60.064s-26.912 60.064-60.064 60.064c-33.248 0-60.064-26.912-60.064-60.064s26.88-60.064 60.064-60.064zM512.416 520.096c33.248 0 60.064 26.912 60.064 60.064s-26.88 60.064-60.064 60.064c-33.12 0-60.064-26.912-60.064-60.064s26.912-60.064 60.064-60.064zM703.296 520.096c33.248 0 60.064 26.912 60.064 60.064s-26.88 60.064-60.064 60.064c-33.12 0-60.064-26.912-60.064-60.064-0.064-33.12 26.88-60.064 60.064-60.064z" />
<glyph unicode="&#xe950;" glyph-name="dds__check" d="M390.208 150.624l-347.968 338.112 41.984 43.2 306.944-298.176 549.536 511.648 41.088-44.096z" />
<glyph unicode="&#xe951;" glyph-name="dds__check-property" d="M732.8 702.848l-41.088 44.16-233.216-217.152-125.344 121.728-41.92-43.2 166.432-161.728zM458.496 232.192l-125.28 121.728-41.984-43.136 166.432-161.792 275.168 256.192-41.088 44.096z" />
<glyph unicode="&#xe952;" glyph-name="dds__chevron-cir-down" d="M512 899.52c-249.376 0-451.52-202.144-451.52-451.52s202.144-451.52 451.52-451.52 451.52 202.144 451.52 451.52c0 249.376-202.144 451.52-451.52 451.52zM512 56.704c-215.776 0-391.296 175.52-391.296 391.296s175.52 391.296 391.296 391.296 391.296-175.52 391.296-391.296-175.52-391.296-391.296-391.296zM512 366.688l-226.432 226.496-42.592-42.592 269.024-269.056 269.024 269.056-42.592 42.592z" />
<glyph unicode="&#xe953;" glyph-name="dds__chevron-cir-left" d="M512 899.712c-249.504 0-451.712-202.208-451.712-451.712s202.208-451.712 451.712-451.712c249.504 0 451.712 202.208 451.712 451.712s-202.272 451.712-451.712 451.712zM512 56.544c-215.872 0-391.456 175.584-391.456 391.456s175.584 391.456 391.456 391.456 391.456-175.584 391.456-391.456c0-215.872-175.648-391.456-391.456-391.456zM614.528 716.96l-269.024-269.024 269.024-269.024 42.592 42.592-226.432 226.432 226.432 226.432z" />
<glyph unicode="&#xe954;" glyph-name="dds__chevron-cir-right" d="M512 898.976c-249.088 0-450.976-201.92-450.976-450.976s201.92-450.976 450.976-450.976 450.976 201.92 450.976 450.976-201.92 450.976-450.976 450.976zM512 57.248c-215.456 0-390.752 175.296-390.752 390.752s175.296 390.752 390.752 390.752 390.752-175.296 390.752-390.752c0-215.456-175.296-390.752-390.752-390.752zM366.848 674.432l226.432-226.432-226.432-226.432 42.592-42.592 269.024 269.024-269.024 269.024z" />
<glyph unicode="&#xe955;" glyph-name="dds__chevron-cir-up" d="M512 899.52c-249.376 0-451.52-202.144-451.52-451.52s202.144-451.52 451.52-451.52c249.376 0 451.52 202.144 451.52 451.52s-202.144 451.52-451.52 451.52zM512 56.704c-215.776 0-391.296 175.52-391.296 391.296s175.52 391.296 391.296 391.296 391.296-175.52 391.296-391.296-175.52-391.296-391.296-391.296zM243.104 345.184l42.592-42.592 226.432 226.496 226.432-226.496 42.592 42.592-269.024 269.056z" />
<glyph unicode="&#xe956;" glyph-name="dds__chevron-down" d="M919.84 694.528l-407.84-407.84-407.84 407.84-42.656-42.592 450.496-450.496 450.496 450.496z" />
<glyph unicode="&#xe957;" glyph-name="dds__chevron-left" d="M758.528 855.84l-42.592 42.656-450.496-450.496 450.496-450.496 42.592 42.656-407.84 407.84z" />
<glyph unicode="&#xe958;" glyph-name="dds__chevron-right" d="M308.032 898.496l-42.592-42.656 407.84-407.84-407.84-407.84 42.592-42.656 450.496 450.496z" />
<glyph unicode="&#xe959;" glyph-name="dds__chevron-up" d="M512 694.528l-450.496-450.496 42.656-42.592 407.84 407.84 407.84-407.84 42.656 42.592z" />
<glyph unicode="&#xe95a;" glyph-name="dds__chip-set" d="M395.264 331.2h233.536v233.536h-233.536v-233.536zM455.488 504.512h113.056v-113.056h-113.056v113.056zM207.936 393.12h79.136v-79.136h-79.136v79.136zM206.496 206.688h79.136v-79.136h-79.136v79.136zM383.744 206.688h79.136v-79.136h-79.136v79.136zM561.088 206.688h79.136v-79.136h-79.136v79.136zM738.368 206.688h79.136v-79.136h-79.136v79.136zM738.368 393.12h79.136v-79.136h-79.136v79.136zM206.496 579.616h79.136v-79.136h-79.136v79.136zM206.496 766.048h79.136v-79.136h-79.136v79.136zM383.744 766.048h79.136v-79.136h-79.136v79.136zM60.224 899.776v-903.52h903.52v423.264l-480.192 480.256h-423.328zM903.52 56.416h-783.072v783.104h338.112l444.96-444.96v-338.176zM557.792 899.776l405.984-405.984v405.984h-405.984zM903.52 639.2l-200.352 200.352h200.352v-200.352z" />
<glyph unicode="&#xe95b;" glyph-name="dds__clipboard" d="M752.832 792.608v-60.224h47.872v-675.552h-577.408v675.552h47.872v60.224h-108.128v-796h697.888v796zM695.84 826.624h-85.408c-12.96 42.048-52.16 72.768-98.432 72.768s-85.472-30.72-98.432-72.768h-85.408v-186.080h367.68v186.080zM635.616 700.736h-247.2v65.664h80.96v30.112c0 23.552 19.104 42.656 42.656 42.656s42.656-19.104 42.656-42.656v-30.112h80.96v-65.664z" />
<glyph unicode="&#xe95c;" glyph-name="dds__clipboard-check" d="M737.888 508.672l60.224 59.808v224.128h-108.128v-60.224h47.872zM737.888 56.832h-577.408v675.552h47.872v60.224h-108.128v-796h697.888v347.872l-60.224-59.808zM633.024 826.624h-85.408c-12.96 42.048-52.16 72.768-98.432 72.768s-85.472-30.72-98.432-72.768h-85.408v-186.080h367.68v186.080zM572.768 700.736h-247.2v65.664h80.96v30.112c0 23.552 19.104 42.656 42.656 42.656s42.656-19.104 42.656-42.656v-30.112h80.96v-65.664zM881.312 581.472l-341.76-339.616-125.344 121.792-41.984-43.264 167.808-162.944 383.744 381.28z" />
<glyph unicode="&#xe95d;" glyph-name="dds__clipboard-lines" d="M334.112 505.888h355.68v-60.224h-355.68v60.224zM334.112 375.232h355.68v-60.224h-355.68v60.224zM334.112 244.512h355.68v-60.224h-355.68v60.224zM752.896 792.608v-60.224h47.84v-675.552h-577.408v675.552h47.84v60.224h-108.064v-796h697.888v796zM695.84 826.624h-85.408c-12.96 42.048-52.16 72.768-98.432 72.768s-85.472-30.72-98.368-72.768h-85.472v-186.080h367.68v186.080zM635.616 700.736h-247.2v65.664h80.96v30.112c0 23.552 19.104 42.656 42.656 42.656s42.656-19.104 42.656-42.656v-30.112h80.96v-65.664z" />
<glyph unicode="&#xe95e;" glyph-name="dds__clipboard-notes" d="M698.88 704.256l60.224 60.256v28.128h-108.128v-60.224h47.872zM698.88 56.864h-204l-21.664-21.664-98.752-38.592h384.64v324.448l-60.224-60.224zM121.472 732.352h47.872v60.224h-108.128v-795.968h89.664l13.984 36.832v2.592l5.536 12.896 3.072 7.904h-52zM593.984 826.592h-85.408c-12.928 42.080-52.16 72.768-98.4 72.768s-85.472-30.688-98.4-72.768h-85.408v-186.080h367.648v186.080zM533.76 700.736h-247.168v65.632h80.96v30.112c0 23.52 19.104 42.656 42.656 42.656s42.656-19.104 42.656-42.656v-30.112h80.928v-65.632zM962.784 609.888l-136.512 136.512-523.808-523.808-77.248-198.56-8.448-23.648 36 13.312 186.816 72.992 523.2 523.2zM826.272 661.216l51.328-51.328-27.904-27.904-51.648 51.008 28.224 28.224zM755.424 590.368l51.648-51.008-366.208-366.208-51.584 51.072 366.144 366.144zM321.44 105.216l28.48 73.216 44.992-44.512-73.472-28.704z" />
<glyph unicode="&#xe95f;" glyph-name="dds__clipboard-remove" d="M413.664 56.8h-239.904v675.552h47.84v60.224h-108.064v-795.936h366.72c-24.992 16.736-47.232 37.152-66.56 60.16zM751.168 554.336c21.248-7.040 41.216-16.8 60.224-28.128v266.368h-108.128v-60.224h47.872v-177.984zM646.304 826.624h-85.408c-12.96 42.048-52.16 72.768-98.432 72.768s-85.472-30.656-98.368-72.768h-85.472v-186.080h367.68v186.080zM586.048 700.704h-247.2v65.664h80.96v30.112c0 23.552 19.104 42.656 42.656 42.656s42.656-19.104 42.656-42.656v-30.112h80.96v-65.664zM783.872 344.544l-42.592 42.592-87.776-87.776-87.712 87.776-42.592-42.592 87.712-87.776-87.712-87.712 42.592-42.592 87.712 87.712 87.776-87.712 42.592 42.592-87.776 87.712 55.040 55.040zM811.392 458.208c-18.432 14.464-38.24 27.168-60.224 36.192-30.176 12.416-63.136 19.52-97.76 19.52-141.984 0-257.088-115.104-257.088-257.088 0-81.248 38.496-152.864 97.344-199.968 43.968-35.168 99.040-57.088 159.744-57.088 59.936 0 114.336 21.312 157.984 55.648 59.872 47.040 99.072 119.328 99.072 201.44 0 82.048-39.2 154.336-99.072 201.376zM811.392 140.576c-16.128-21.856-36.608-39.936-60.224-53.536-28.928-16.736-62.048-27.040-97.76-27.040-108.544 0-196.864 88.32-196.864 196.864s88.32 196.864 196.864 196.864c35.776 0 68.864-10.304 97.76-27.040 23.616-13.664 44.096-31.744 60.224-53.536 24.096-32.64 38.848-72.64 38.848-116.256 0-43.68-14.752-83.616-38.848-116.256z" />
<glyph unicode="&#xe960;" glyph-name="dds__clipboard-search" d="M749.664 506.464c23.808-18.304 44.288-40.352 60.224-65.888v352.448h-108.128v-60.224h47.872v-226.304zM172.256 57.216v675.552h47.872v60.224h-108.128v-796h682.336l-60.288 60.224zM644.8 827.040h-85.408c-12.96 42.048-52.16 72.768-98.432 72.768s-85.472-30.72-98.432-72.768h-85.408v-186.080h367.68v186.080zM584.544 701.152h-247.2v65.664h80.96v30.112c0 23.552 19.104 42.656 42.656 42.656s42.656-19.104 42.656-42.656v-30.112h80.96v-65.664zM809.888 140.896l-50.24 50.304c24.096 32.96 38.72 73.184 38.72 116.992 0 49.44-18.784 94.208-48.736 129.088-36.608 42.656-90.24 70.304-150.72 70.304-109.92 0-199.392-89.44-199.392-199.392s89.376-199.392 199.392-199.392c44.384 0 84.992 15.072 118.176 39.68l152.288-152.288 42.592 42.592-102.112 102.112zM598.944 169.024c-76.672 0-139.136 62.4-139.136 139.136s62.4 139.136 139.136 139.136c76.736 0 139.2-62.4 139.2-139.136s-62.464-139.136-139.2-139.136z" />
<glyph unicode="&#xe961;" glyph-name="dds__clock" d="M512 839.52c215.872 0 391.52-175.584 391.52-391.456 0-215.936-175.648-391.584-391.52-391.584s-391.52 175.648-391.52 391.584c0 215.872 175.648 391.456 391.52 391.456zM512 899.776c-249.088 0-451.776-202.624-451.776-451.712 0-249.12 202.688-451.84 451.776-451.84s451.776 202.688 451.776 451.84c0 249.12-202.624 451.712-451.776 451.712v0zM758.24 386.624h-277.152v387.744h60.224v-327.488h216.896z" />
<glyph unicode="&#xe962;" glyph-name="dds__clock-arrow-left" d="M476.896 126.912c-196.48 0-356.416 159.936-356.416 356.48 0.064 196.416 159.936 356.288 356.416 356.288s356.416-159.872 356.416-356.352c0-24.448-2.464-48.32-7.232-71.392l49.44-49.44c11.616 38.24 18.016 78.784 18.016 120.832 0 229.728-186.912 416.576-416.64 416.576-229.664 0-416.576-186.848-416.576-416.576s186.912-416.704 416.64-416.704c45.792 0 89.76 7.712 130.944 21.376l-48.8 48.8c-26.432-6.208-53.92-9.888-82.208-9.888zM446.048 784.256v-359.968h257.92v60.224h-197.696v299.744zM963.712 155.392v54.752h-258.944l118.976 118.976-17.696 17.696-20.96 21.024-185.888-185.888 23.488-23.552 162.4-162.336 38.656 38.72-120.64 120.576h29.984z" />
<glyph unicode="&#xe963;" glyph-name="dds__clock-arrow-right" d="M547.072 899.904c-229.728 0-416.64-186.912-416.64-416.576 0-42.048 6.4-82.592 18.016-120.832l49.44 49.44c-4.704 23.072-7.232 46.912-7.232 71.392 0 196.48 159.872 356.352 356.416 356.352s356.416-159.872 356.416-356.352c0-196.544-159.872-356.48-356.416-356.48-28.32 0-55.776 3.68-82.176 9.952l-48.8-48.8c41.248-13.728 85.184-21.376 130.944-21.376 229.664 0 416.64 186.912 416.64 416.704-0.064 229.664-186.976 416.576-416.64 416.576zM516.32 784.192v-359.904h257.984v60.224h-197.76v299.68zM238.912 367.808l-38.656-38.656 118.976-118.976h-258.944v-54.752h260.64l-120.64-120.64 38.656-38.656 185.888 185.824z" />
<glyph unicode="&#xe964;" glyph-name="dds__clone" d="M60.544-3.456h602.368v602.368h-602.368v-602.368zM120.768 538.656h481.888v-481.888h-481.888v481.888zM361.12 899.456v-180.768h60.224v120.544h481.888v-481.888h-120.832v-60.224h181.056v602.368zM207.328 417.408h232.736l-272.384-272.384 42.592-42.592 271.616 271.616v-231.168h60.224v334.784h-334.784z" />
<glyph unicode="&#xe965;" glyph-name="dds__close-back" d="M256.352 693.888l-196.128-245.888 196.128-245.888h707.392v491.776h-707.392zM903.52 262.368h-618.208l-148.064 185.632 148.064 185.632h618.208v-371.296zM486.208 313.248l92.224 92.16 92.16-92.16 42.592 42.592-92.16 92.16 92.16 92.16-42.592 42.592-92.16-92.16-92.224 92.16-42.592-42.592 92.224-92.16-92.224-92.16z" />
<glyph unicode="&#xe966;" glyph-name="dds__close-cir" d="M682.72 660.928l-170.4-170.336-170.336 170.336-42.592-42.592 170.336-170.336-170.336-170.4 42.592-42.592 170.336 170.336 170.4-170.336 42.592 42.592-170.4 170.4 170.4 170.336zM512 899.936c-249.6 0-451.936-202.336-451.936-451.936s202.336-451.936 451.936-451.936 451.936 202.336 451.936 451.936-202.336 451.936-451.936 451.936zM512 56.288c-216 0-391.712 175.712-391.712 391.712s175.712 391.712 391.712 391.712c216 0 391.712-175.712 391.712-391.712s-175.712-391.712-391.712-391.712z" />
<glyph unicode="&#xe967;" glyph-name="dds__close-sqr" d="M60.16 899.68v-903.36h903.648v903.36h-903.648zM903.648 56.576h-783.232v782.88h783.168v-782.88zM208 186.56l42.592-42.592 260.576 260.576 262.336-262.336 42.592 42.592-262.336 262.336 264.128 264.064-42.656 42.592-264.064-264.064-262.336 262.4-42.592-42.592 262.336-262.4z" />
<glyph unicode="&#xe968;" glyph-name="dds__close-x" d="M925.728 819.136l-42.592 42.592-372.384-372.384-369.92 369.952-42.592-42.592 369.92-369.952-367.488-367.488 42.592-42.592 367.488 367.488 369.952-369.92 42.592 42.592-369.952 369.92z" />
<glyph unicode="&#xe969;" glyph-name="dds__cloud" d="M587.104 665.024c115.040 0 166.624-98.848 166.624-196.8l0.48-55.424 55.232-4.64c15.712-1.312 94.080-11.744 94.080-88.608 0-73.248-68.064-86.272-91.072-88.48h-589.088c-10.528 0-103.008 2.88-103.008 102.944 0 78.496 68.352 101.664 75.52 103.904l37.888 10.656 5.472 38.976c0.416 3.136 12.032 77.216 115.456 77.216 10.656 0 22.176-0.768 34.080-2.304l41.088-4.384 19.744 35.968c1.568 2.784 40.128 70.944 137.472 70.944zM587.104 725.248c-137.824 0-190.656-103.072-190.656-103.072-14.944 1.856-28.8 2.72-41.728 2.72-156.96 0-175.104-129.088-175.104-129.088s-119.456-33.536-119.456-161.92c0-128.352 107.456-163.168 163.232-163.168h591.616c0 0 148.768 10.112 148.768 148.736s-149.856 148.736-149.856 148.736c-0.064 145.472-89.024 257.088-226.848 257.088v0z" />
<glyph unicode="&#xe96a;" glyph-name="dds__cloud-check" d="M877.152 451.36l-47.040-46.752c28.672-6.912 73.44-27.040 73.44-85.184 0-73.248-68.064-86.272-91.072-88.48h-589.088c-10.528 0-103.008 2.88-103.008 102.944 0 78.496 68.352 101.664 75.52 103.904l37.888 10.656 5.472 38.976c0.416 3.136 12.032 77.216 115.456 77.216 10.656 0 22.176-0.768 34.080-2.304l41.088-4.384 19.744 35.968c1.568 2.88 40.128 71.072 137.472 71.072 75.84 0 123.552-43.2 147.584-100.48l45.472 45.184c-37.824 70.24-105.408 115.52-193.056 115.52-137.824 0-190.656-103.072-190.656-103.072-14.944 1.856-28.8 2.72-41.728 2.72-156.96 0-175.104-129.088-175.104-129.088s-119.456-33.536-119.456-161.92c0-128.352 107.456-163.168 163.232-163.168h591.616c0 0 148.768 10.112 148.768 148.736-0.064 76.544-45.792 113.856-86.688 131.904zM627.904 373.536l-142.208 138.112-41.92-43.264 184.608-179.328 335.328 333.152-42.464 42.72-169.44-168.352z" />
<glyph unicode="&#xe96b;" glyph-name="dds__cloud-document" d="M795.52 597.632v302.752h-455.68l-222.944-210.816v-693.92h678.56v163.104h-60.224v-102.88h-558.016v579.104h226.56v205.152h331.52v-203.008c22.464-9.504 42.72-22.784 60.224-39.52zM343.52 695.2h-132.928l132.928 125.696v-125.696zM805.888 420.064c0 23.84-3.68 46.272-10.368 66.688-11.456 34.88-32.288 63.2-60.224 82.048-23.072 15.616-50.784 24.992-82.688 24.992-93.12 0-128.896-69.696-128.896-69.696-10.048 1.312-19.392 1.92-28.128 1.92-106.080 0-118.368-87.232-118.368-87.232s-80.768-22.72-80.768-109.44 72.576-110.304 110.304-110.304h399.84c0 0 100.544 6.88 100.544 100.544 0.064 93.664-101.184 100.48-101.184 100.48zM803.84 279.296h-397.12c-11.744 0-50.048 3.616-50.048 50.048 0 36.672 28.928 48.864 36.8 51.456l37.632 9.152 5.472 38.976c2.72 13.728 14.048 36.864 58.976 36.864 6.4 0 13.184-0.48 20.544-1.376l41.92-5.376 19.264 37.6c0.192 0.352 21.376 36.928 75.296 36.928 44.224 0 69.888-25.408 82.688-57.408 7.104-17.696 10.368-37.408 10.368-56.064v-56.32l56.192-3.808c10.592-0.736 45.12-5.728 45.12-40.416-0.064-30.592-26.816-38.432-43.136-40.224z" />
<glyph unicode="&#xe96c;" glyph-name="dds__cloud-iq" d="M60.192 356.704c0-0.48 0.128-0.832 0.128-1.312v2.528c0-0.416-0.128-0.768-0.128-1.216zM60.32 357.92c0-0.416-0.128-0.768-0.128-1.216 0-0.48 0.128-0.832 0.128-1.312v2.528zM60.512 471.52h60.224v-205.824h-60.224v205.824zM903.552 421.056h60.224v-155.36h-60.224v155.36zM181.632 559.776h60.224v-366.4h-60.224v366.4zM302.816 702.656h60.224v-509.216h-60.224v509.216zM423.968 702.656h60.224v-509.216h-60.224v509.216zM545.152 559.776h60.224v-366.4h-60.224v366.4zM666.304 582.176h60.224v-388.832h-60.224v388.832zM787.488 471.52h60.224v-278.112h-60.224v278.112z" />
<glyph unicode="&#xe96d;" glyph-name="dds__cloud-restore" d="M813.92 567.296c0 145.472-89.024 257.024-226.848 257.024s-190.656-103.136-190.656-103.136c-14.88 1.92-28.736 2.784-41.696 2.784-156.96 0-175.104-129.088-175.104-129.088s-119.52-33.504-119.52-161.856c0-127.456 105.824-162.56 161.92-163.104v60.16c-13.664 0.192-101.664 4.992-101.664 102.88 0 78.496 68.352 101.664 75.52 103.904l36.672 11.328 6.496 37.344c2.336 13.056 18.624 78.176 115.648 78.176 10.656 0 22.176-0.768 34.080-2.304l41.92-5.376 19.264 37.6c0.352 0.736 38.784 70.368 137.088 70.368 115.040 0 166.624-98.848 166.624-196.8l0.48-55.488 55.232-4.64c15.712-1.312 94.144-11.744 94.144-88.608 0-73.248-68.064-86.272-91.072-88.48h-16.256v-60.224h18.784c0 0 148.768 10.112 148.768 148.736s-149.92 148.768-149.92 148.768zM600.832 555.84l-39.328-45.664 49.216-42.4h-311.552v-163.424h60.224v103.168h249.728l-45.664-39.264 32.96-38.176 6.4-7.456 8.608 7.456 125.76 108.128zM660.576 269.856v-50.432h-250.464l46.336 39.808-9.088 10.592-30.176 35.072-134.496-115.52 136.48-117.696 39.264 45.664-48.48 41.856h310.88v169.376h-60.224z" />
<glyph unicode="&#xe96e;" glyph-name="dds__cloud-upload" d="M813.888 530.336c0 145.472-89.024 257.024-226.848 257.024s-190.656-103.136-190.656-103.136c-14.88 1.92-28.736 2.816-41.696 2.816-156.96 0-175.104-129.088-175.104-129.088s-119.52-33.536-119.52-161.92 107.456-163.168 163.232-163.168h71.2l-60.224 60.224h-10.976c-10.528 0-103.008 2.88-103.008 102.944 0 78.496 68.352 101.664 75.52 103.904l37.888 10.656 5.472 38.976c0.416 3.136 12.032 77.216 115.456 77.216 10.656 0 22.176-0.768 34.080-2.304l41.088-4.384 19.744 35.968c1.568 2.88 40.128 71.072 137.472 71.072 115.040 0 166.624-98.848 166.624-196.8v-56.32l56.192-3.808c9.568-0.672 93.664-8.608 93.664-88.608 0-73.248-68.064-86.272-91.072-88.48h-22.816l-60.224-60.224h85.664c0 0 148.768 10.112 148.768 148.736s-149.984 148.672-149.984 148.672zM307.392 305.248l42.592-42.592 30.528 30.464 102.208 102.272v-286.784h60.224v284.928l130.944-130.88 42.592 42.592-204.544 204.544z" />
<glyph unicode="&#xe96f;" glyph-name="dds__cloud-wireless" d="M813.952 532.704c0 145.472-89.024 257.024-226.848 257.024s-190.656-103.072-190.656-103.072c-14.88 1.92-28.736 2.784-41.696 2.784-156.96 0-175.104-129.088-175.104-129.088s-119.52-33.504-119.52-161.856 107.456-163.168 163.232-163.168h48.8l-61.088 61.184c-27.712 3.072-90.72 19.040-90.72 102.048 0 78.496 68.352 101.664 75.52 103.904l36.672 11.2 6.496 37.344c2.336 13.056 18.624 78.176 115.648 78.176 10.656 0 22.176-0.768 34.080-2.304l41.92-5.376 19.264 37.6c0.352 0.736 38.784 70.368 137.088 70.368 115.040 0 166.624-98.848 166.624-196.8v-56.32l56.192-3.808c9.568-0.672 93.664-8.608 93.664-88.608 0-73.248-68.064-86.272-91.072-88.48h-0.608l-60.224-60.224h63.296c0 0 148.768 10.112 148.768 148.736s-149.856 148.736-149.856 148.736zM756.192 367.52c-65.184 65.184-151.904 101.12-244.256 101.12-92.16 0-178.848-35.904-244.128-101.12l-21.312-21.216 42.592-42.656 21.312 21.312c53.92 53.856 125.472 83.488 201.536 83.488 76.256 0 147.872-29.632 201.664-83.488l21.312-21.312 42.592 42.592-21.312 21.248zM646.624 295.552c-76.544 62.72-192.64 62.72-269.248 0-4.864-4.032-10.24-7.36-14.752-11.872l-21.312-21.248 26.976-27.168 15.488-15.552 21.376 21.216c57.472 57.216 156.384 57.088 213.728 0l5.664-5.664 15.648-15.552 15.552 15.552 26.976 27.104-21.312 21.312c-4.512 4.512-9.888 7.84-14.752 11.872zM511.936 196.384c-24.832 0-44.992-20.192-44.992-44.992 0-24.864 20.192-45.12 44.992-45.12 24.864 0 45.056 20.224 45.056 45.12 0.064 24.832-20.192 44.992-45.056 44.992z" />
<glyph unicode="&#xe970;" glyph-name="dds__collapse-down" d="M963.84 775.008h-903.648l451.776-472 451.872 472zM822.752 714.784l-310.816-324.672-310.752 324.672h621.568zM60.16 181.216h903.648v-60.224h-903.648v60.224z" />
<glyph unicode="&#xe971;" glyph-name="dds__collapse-down-sqr" d="M805.216 659.072h-586.336l293.12-306.304 293.216 306.304zM664.16 598.816l-152.16-158.912-152.096 158.912h304.256zM218.88 267.008h586.336v-60.224h-586.336v60.224zM60.16 899.84v-903.648h903.648v903.648h-903.648zM903.584 56.416h-783.168v783.168h783.168v-783.168z" />
<glyph unicode="&#xe972;" glyph-name="dds__collapse-up" d="M512.032 592.992l-451.872-472h903.712l-451.84 472zM512.032 505.824l310.752-324.672h-621.568l310.816 324.672zM60.16 775.008h903.648v-60.224h-903.648v60.224z" />
<glyph unicode="&#xe973;" glyph-name="dds__collapse-up-sqr" d="M218.784 236.992h586.336l-293.12 306.24-293.216-306.24zM359.84 297.216l152.16 158.912 152.096-158.912h-304.256zM218.784 689.248h586.336v-60.224h-586.336v60.224zM60.16 899.84v-903.648h903.648v903.648h-903.648zM903.584 56.416h-783.168v783.168h783.168v-783.168z" />
<glyph unicode="&#xe974;" glyph-name="dds__column-add" d="M353.28 56.512h-108.576v782.976h276.224v-302.976c19.616 4.896 39.776 7.808 60.224 8.736v354.464h-396.704v-903.456h229.6c-23.008 17.12-43.328 37.536-60.8 60.224zM626.72 483.744c-10.784 1.376-21.44 2.016-31.936 2.016-145.6 0-261.536-127.2-242.72-276.512 13.728-109.056 101.76-197.152 210.816-210.944 10.752-1.376 21.44-2.016 31.904-2.016 145.568 0 261.472 127.072 242.752 276.416-13.696 109.12-101.728 197.248-210.816 211.072zM733.216 119.008c-35.040-39.712-85.504-62.496-138.432-62.496-8 0-16.16 0.512-24.352 1.536-81.632 10.304-148.32 77.056-158.624 158.688-6.816 54.016 9.024 105.952 44.544 146.24 35.040 39.744 85.504 62.528 138.432 62.528 8.032 0 16.16-0.512 24.352-1.536 81.664-10.336 148.384-77.12 158.624-158.784 6.784-54.016-9.056-105.952-44.576-146.176zM720.896 271.168h-96.768v95.936h-60.224v-95.936h-95.232v-60.224h95.232v-96h60.224v96h96.768z" />
<glyph unicode="&#xe975;" glyph-name="dds__comment" d="M903.552 834.144v-524.48l-260.032-0.48-156.8-160.032v160.096l-366.304-0.352v525.248h783.104zM963.808 894.368h-903.584v-645.728l366.304 0.352v-247.392l242.4 247.392 294.912 0.544v644.832z" />
<glyph unicode="&#xe976;" glyph-name="dds__comment-add" d="M481.92 382.848h60.224v153.6h153.6v60.224h-153.6v153.664h-60.224v-153.664h-153.6v-60.224h153.6zM60.192 894.368v-645.728l366.304 0.352v-247.392l242.4 247.392 294.912 0.544v644.832h-903.584zM903.616 309.664l-260.032-0.48-156.8-160.032v160.096l-366.304-0.352v525.248h783.104v-524.48z" />
<glyph unicode="&#xe977;" glyph-name="dds__comment-check" d="M765.312 699.040l-42.528 42.72-276.352-274.56-133.376 129.504-42.048-43.2 175.84-170.816zM60.192 894.368v-645.728l366.304 0.352v-247.392l242.4 247.392 294.912 0.544v644.832h-903.584zM903.616 309.664l-260.032-0.48-156.8-160.032v160.096l-366.304-0.352v525.248h783.104v-524.48z" />
<glyph unicode="&#xe978;" glyph-name="dds__compare" d="M963.648 309.248h-440.576l236.96 195.648-38.368 46.432-329.856-272.32 329.856-272.384 38.368 46.496-237.312 195.872h440.928zM303.584 889.376l-38.304-46.432 237.28-195.936h-442.176v-60.224h441.824l-236.896-195.584 38.304-46.496 329.856 272.384z" />
<glyph unicode="&#xe979;" glyph-name="dds__conversation" d="M385.024 836.352v-137.696h60.224v77.472h458.208v-306.304h-104.16v-84.8l-100.096 82.112v-77.888l160.352-131.552v151.904h104.16v426.752zM385.024 638.4h-324.736v-426.752h104.192v-151.968l185.152 151.968h289.376v426.752h-254.016zM578.752 578.176v-306.304h-250.624l-103.424-84.864v84.864h-104.16v306.304h458.208zM348.16 456c-17.12 0-31.008-13.92-31.008-31.008s13.92-31.008 31.008-31.008c17.12 0 31.008 13.92 31.008 31.008s-13.856 31.008-31.008 31.008zM445.92 409.568c5.376-9.152 14.88-15.616 26.336-15.616s20.896 6.432 26.336 15.616c2.72 4.576 4.704 9.696 4.704 15.424 0 17.12-13.92 31.008-31.008 31.008s-31.008-13.92-31.008-31.008c0-5.728 1.984-10.784 4.704-15.424zM239.904 453.056c-3.904 1.792-8.256 2.944-12.896 2.944-17.12 0-31.008-13.92-31.008-31.008s13.92-31.008 31.008-31.008c4.704 0 9.024 1.216 13.056 3.072 10.528 4.992 17.952 15.552 17.952 27.936 0 12.48-7.456 23.136-18.144 28.064z" />
<glyph unicode="&#xe97a;" glyph-name="dds__conversation-cir" d="M960.32 506.464c-25.28 201.504-187.904 364.288-389.376 389.792-19.904 2.528-39.584 3.744-58.976 3.744-268.928 0-483.040-234.912-448.288-510.72 25.376-201.408 187.968-364.096 389.344-389.568 19.872-2.496 39.552-3.744 58.944-3.744 268.8 0 482.912 234.688 448.32 510.464zM805.888 188.928c-74.4-84.32-181.504-132.672-293.888-132.672-16.992 0-34.272 1.088-51.392 3.264-173.504 21.952-315.296 163.808-337.152 337.344-14.432 114.496 19.168 224.64 94.592 310.176 74.4 84.384 181.536 132.768 293.92 132.768 16.992 0 34.304-1.088 51.424-3.264 173.6-21.952 315.392-163.904 337.152-337.536 14.368-114.496-19.264-224.608-94.688-310.048zM264.48 293.28l176.288 0.16v-162.592l159.424 162.656 159.36 0.352v370.4h-495.072v-371.008zM324.704 604.064h374.592v-250.048l-124.544-0.224-73.76-75.36v75.424l-176.288-0.16v250.4zM413.664 507.392c-17.152 0-31.008-13.888-31.008-31.008s13.856-31.008 31.008-31.008c17.12 0 31.008 13.888 31.008 31.008s-13.92 31.008-31.008 31.008zM543.232 476.384c0 17.12-13.856 31.008-31.008 31.008-17.12 0-31.008-13.888-31.008-31.008s13.888-31.008 31.008-31.008c17.152 0 31.008 13.888 31.008 31.008zM610.752 445.376c17.152 0 31.008 13.888 31.008 31.008s-13.856 31.008-31.008 31.008c-17.12 0-31.008-13.888-31.008-31.008s13.888-31.008 31.008-31.008z" />
<glyph unicode="&#xe97b;" glyph-name="dds__copy" d="M586.272 276.448l172.032 171.968-172.032 171.968-42.592-42.592 100.096-100.064h-333.408v-60.224h331.776l-98.496-98.496zM412.672 56.768h-290.688v782.464h290.688v-127.168h60.224v187.392h-411.168v-902.912h411.168v189.152h-60.224zM551.104 899.456v-187.392h60.224v127.168h290.688v-782.464h-290.688v128.896h-60.224v-189.152h411.168v902.912z" />
<glyph unicode="&#xe97c;" glyph-name="dds__copy-alt" d="M290.176 894.656v-756.128h591.456v756.128h-591.456zM821.408 685.952v-487.168h-471.008v635.648h471.008v-148.48zM673.6 61.6h-471.008v633.056h27.872v60.224h-88.128v-753.536h591.456v78.464h-60.224z" />
<glyph unicode="&#xe97d;" glyph-name="dds__cube" d="M512.032 899.712l-391.232-225.888v-451.712l391.232-225.824 391.168 225.824v451.712l-391.168 225.888zM815.616 654.848l-303.648-170.176-303.648 170.176 303.648 175.36 303.648-175.36zM180.992 601.12l300.448-168.352v-349.312l-300.448 173.408v344.256zM541.664 82.976v349.376l301.312 168.832v-344.256l-301.312-173.952z" />
<glyph unicode="&#xe97e;" glyph-name="dds__currency" d="M725.792 346.112l-0.288 0.832c-8.384 21.088-21.248 40.352-38.24 57.344-16.448 16.448-37.216 31.008-61.792 43.264-23.2 11.552-55.488 24.448-98.784 39.264-39.648 13.568-70.464 27.040-91.744 40.064-19.168 11.808-32.704 24.576-40.416 38.016-7.584 13.312-11.456 32.704-11.456 57.696 0 34.464 11.68 61.632 35.84 83.136 25.056 22.24 58.112 33.056 101.248 33.056 43.744 0 76.864-12.64 101.376-38.784 24.928-26.56 37.056-61.44 37.056-106.432v-25.6h75.776v25.536c0 65.056-17.536 117.76-51.968 156.608-30.24 34.048-71.552 54.88-122.944 62.048v87.584h-76.256v-87.104c-47.296-5.856-87.296-23.424-118.784-52.48-37.824-34.752-57.056-81.184-57.056-137.952 0-34.336 6.56-64.32 19.52-89.216s32.96-46.752 59.392-65.056c25.248-17.472 62.528-34.56 113.92-52.288 46.816-16.192 82.272-31.616 105.536-45.728 21.088-12.896 36.032-26.624 44.224-40.832 8.128-13.984 12.288-32.64 12.288-55.584 0-32.64-12.352-59.392-37.824-81.792-26.368-23.264-59.392-34.528-101.088-34.528-51.68 0-90.848 12.704-119.744 38.848-28.192 25.408-41.856 60.352-41.856 106.848v25.6h-75.712v-25.6c0-66.752 20.416-120.352 60.672-159.328 35.008-33.92 82.656-54.208 141.6-60.352v-86.976h76.192v88.064c47.936 6.688 87.808 24.864 118.496 54.080 36.576 34.752 55.104 80.48 55.104 135.84-0.064 26.912-4.16 51.072-12.224 71.872z" />
<glyph unicode="&#xe97f;" glyph-name="dds__currency-coins" d="M574.048 899.712c-87.456 0-167.872-29.152-232.928-77.824 34.88 8.672 71.136 13.856 108.736 13.856 18.688 0 36.928-1.504 55.008-3.744 22.336 4.832 45.472 7.456 69.216 7.456 181.6 0 329.376-147.744 329.376-329.376 0-23.744-2.656-46.816-7.424-69.152 2.24-18.080 3.744-36.384 3.744-55.040 0-37.536-5.12-73.792-13.792-108.672 48.608 64.992 77.76 145.408 77.76 232.864 0 215.168-174.432 389.6-389.664 389.6zM449.888 715.264c181.6 0 329.376-147.744 329.376-329.376s-147.744-329.376-329.376-329.376c-181.6 0-329.376 147.744-329.376 329.376s147.712 329.376 329.376 329.376zM449.888 775.488c-215.168 0-389.6-174.432-389.6-389.6s174.432-389.6 389.6-389.6 389.6 174.432 389.6 389.6-174.432 389.6-389.6 389.6v0zM570.368 332.64c-4.928 12.288-12.48 23.616-22.4 33.6-9.568 9.504-21.504 17.888-35.552 24.928-12.96 6.432-30.784 13.504-54.56 21.696-21.088 7.232-37.408 14.272-48.416 21.152-9.344 5.664-15.84 11.744-19.456 18.080-2.4 4.16-5.248 12.352-5.248 27.712 0 16.8 5.408 29.44 17.056 39.808 12.224 10.976 28.672 16.192 50.304 16.192s37.952-6.144 49.888-18.848c12.224-13.024 18.144-30.368 18.144-52.96v-21.088h55.584v21.088c0 37.152-10.112 67.392-30.112 89.92-16.384 18.432-38.176 30.24-64.992 35.104v48.608h-55.776v-48.32c-24.512-4.032-45.408-13.92-62.272-29.44-22.112-20.288-33.376-47.36-33.376-80.288 0-19.808 3.84-37.216 11.456-51.808s19.2-27.36 34.56-37.952c14.208-9.824 35.008-19.456 63.68-29.408 24.928-8.608 43.744-16.672 56.032-24.16 10.432-6.4 17.696-12.96 21.632-19.712 3.744-6.432 5.664-15.36 5.664-26.56 0-15.776-5.728-28.192-18.080-39.040-13.024-11.456-29.44-16.992-50.24-16.992-26.208 0-45.888 6.272-60.288 19.264-13.728 12.416-20.352 29.632-20.352 52.768v21.088h-55.648v-21.088c0-38.304 11.872-69.216 35.104-91.744 18.848-18.368 43.968-29.76 74.88-34.048v-48.064h55.776v48.896c24.832 4.448 45.728 14.624 62.208 30.304 21.312 20.352 32.16 46.976 32.16 79.104 0 15.712-2.464 29.952-7.296 42.112z" />
<glyph unicode="&#xe980;" glyph-name="dds__currency-coins-euros" d="M572.8 899.2c-86.4 0-166.4-28.8-233.6-76.8 35.2 9.6 70.4 12.8 108.8 12.8 19.2 0 38.4 0 54.4-3.2 22.4 6.4 44.8 6.4 70.4 6.4 182.4 0 329.6-147.2 329.6-329.6 0-22.4-3.2-48-6.4-70.4 3.2-19.2 3.2-35.2 3.2-54.4 0-38.4-6.4-73.6-12.8-108.8 48 64 76.8 144 76.8 233.6 0 217.6-172.8 390.4-390.4 390.4v0zM451.2 716.8c182.4 0 329.6-147.2 329.6-329.6s-147.2-329.6-329.6-329.6c-182.4 0-329.6 147.2-329.6 329.6s147.2 329.6 329.6 329.6zM451.2 774.4c-214.4 0-390.4-176-390.4-390.4s176-390.4 390.4-390.4 390.4 176 390.4 390.4-176 390.4-390.4 390.4c0 0 0 0 0 0zM521.6 323.2h-131.2c0-44.8 12.8-76.8 32-102.4 19.2-22.4 48-35.2 86.4-35.2 25.6 0 51.2 3.2 73.6 12.8l6.4-54.4c-25.6-6.4-54.4-9.6-80-9.6-54.4 0-99.2 16-131.2 48s-48 80-51.2 140.8h-60.8v41.6h60.8v44.8h-60.8v41.6h60.8c3.2 57.6 19.2 105.6 51.2 137.6s76.8 48 131.2 48c22.4 0 51.2-3.2 80-9.6l-6.4-51.2c-25.6 6.4-48 12.8-73.6 12.8-38.4 0-64-12.8-86.4-35.2-19.2-22.4-32-54.4-32-99.2h128v-41.6h-131.2v-44.8h131.2v-44.8z" />
<glyph unicode="&#xe981;" glyph-name="dds__currency-coins-generic" d="M572.8 899.2c-86.4 0-166.4-28.8-233.6-76.8 35.2 9.6 70.4 12.8 108.8 12.8 19.2 0 38.4 0 54.4-3.2 22.4 6.4 44.8 6.4 70.4 6.4 182.4 0 329.6-147.2 329.6-329.6 0-22.4-3.2-48-6.4-70.4 3.2-19.2 3.2-35.2 3.2-54.4 0-38.4-6.4-73.6-12.8-108.8 48 64 76.8 144 76.8 233.6 0 217.6-172.8 390.4-390.4 390.4v0zM451.2 716.8c182.4 0 329.6-147.2 329.6-329.6s-147.2-329.6-329.6-329.6-329.6 147.2-329.6 329.6 147.2 329.6 329.6 329.6zM451.2 774.4c-214.4 0-390.4-176-390.4-390.4s176-390.4 390.4-390.4 390.4 176 390.4 390.4-176 390.4-390.4 390.4v0zM560 537.6l67.2 70.4 41.6-41.6-76.8-67.2c16-25.6 35.2-64 35.2-108.8 0-51.2-16-89.6-35.2-115.2l70.4-67.2-41.6-48-64 70.4c-28.8-28.8-70.4-38.4-108.8-38.4s-83.2 12.8-108.8 35.2l-60.8-64-38.4 41.6 64 64c-19.2 25.6-35.2 67.2-35.2 112 0 48 16 86.4 35.2 115.2l-70.4 67.2 44.8 44.8 64-70.4c25.6 22.4 64 38.4 108.8 38.4s80-16 108.8-38.4zM339.2 384c0-89.6 60.8-131.2 108.8-131.2 54.4 0 108.8 35.2 108.8 131.2 0 64-38.4 128-108.8 128-67.2 3.2-108.8-54.4-108.8-128z" />
<glyph unicode="&#xe982;" glyph-name="dds__currency-coins-indian-rupees" d="M572.8 899.2c-86.4 0-166.4-28.8-233.6-76.8 35.2 9.6 70.4 12.8 108.8 12.8 19.2 0 38.4 0 54.4-3.2 22.4 6.4 44.8 6.4 70.4 6.4 182.4 0 329.6-147.2 329.6-329.6 0-22.4-3.2-48-6.4-70.4 3.2-19.2 3.2-35.2 3.2-54.4 0-38.4-6.4-73.6-12.8-108.8 48 64 76.8 144 76.8 233.6 0 217.6-172.8 390.4-390.4 390.4v0zM451.2 716.8c182.4 0 329.6-147.2 329.6-329.6s-147.2-329.6-329.6-329.6c-182.4 0-329.6 147.2-329.6 329.6s147.2 329.6 329.6 329.6zM451.2 774.4c-214.4 0-390.4-176-390.4-390.4s176-390.4 390.4-390.4 390.4 176 390.4 390.4-176 390.4-390.4 390.4c0 0 0 0 0 0zM604.8 582.4h-83.2c16-19.2 25.6-41.6 28.8-67.2h70.4l-16-54.4h-51.2c-3.2-41.6-19.2-73.6-48-92.8-28.8-22.4-67.2-32-118.4-32l172.8-198.4v-3.2h-80l-185.6 214.4v41.6h86.4c28.8 0 51.2 6.4 70.4 19.2s28.8 28.8 35.2 51.2h-201.6l12.8 51.2h182.4c-12.8 44.8-44.8 67.2-102.4 67.2h-96l16 54.4 320 3.2-12.8-54.4z" />
<glyph unicode="&#xe983;" glyph-name="dds__currency-coins-pounds" d="M572.8 899.2c-86.4 0-166.4-28.8-233.6-76.8 35.2 9.6 70.4 12.8 108.8 12.8 19.2 0 38.4 0 54.4-3.2 22.4 6.4 44.8 6.4 70.4 6.4 182.4 0 329.6-147.2 329.6-329.6 0-22.4-3.2-48-6.4-70.4 3.2-19.2 3.2-35.2 3.2-54.4 0-38.4-6.4-73.6-12.8-108.8 48 64 76.8 144 76.8 233.6 0 217.6-172.8 390.4-390.4 390.4v0zM451.2 716.8c182.4 0 329.6-147.2 329.6-329.6s-147.2-329.6-329.6-329.6-329.6 147.2-329.6 329.6 147.2 329.6 329.6 329.6zM451.2 774.4c-214.4 0-390.4-176-390.4-390.4s176-390.4 390.4-390.4 390.4 176 390.4 390.4-176 390.4-390.4 390.4v0zM396.8 364.8l3.2-70.4c0-35.2-6.4-60.8-22.4-80h243.2v-54.4h-342.4v54.4h25.6c9.6 3.2 16 9.6 22.4 25.6s9.6 32 9.6 54.4v3.2l-3.2 73.6h-54.4v54.4h54.4l-3.2 86.4c0 44.8 12.8 76.8 41.6 105.6 28.8 25.6 60.8 41.6 105.6 41.6 41.6 0 73.6-12.8 99.2-35.2 25.6-25.6 38.4-57.6 38.4-92.8h-60.8c0 25.6-6.4 44.8-22.4 57.6s-35.2 22.4-60.8 22.4c-22.4 0-41.6-9.6-57.6-25.6s-22.4-41.6-22.4-67.2l3.2-86.4h105.6v-54.4h-102.4v-12.8z" />
<glyph unicode="&#xe984;" glyph-name="dds__currency-coins-rupees" d="M572.8 899.2c-86.4 0-166.4-28.8-233.6-76.8 35.2 9.6 70.4 12.8 108.8 12.8 19.2 0 38.4 0 54.4-3.2 22.4 6.4 44.8 6.4 70.4 6.4 182.4 0 329.6-147.2 329.6-329.6 0-22.4-3.2-48-6.4-70.4 3.2-19.2 3.2-35.2 3.2-54.4 0-38.4-6.4-73.6-12.8-108.8 48 64 76.8 144 76.8 233.6 0 217.6-172.8 390.4-390.4 390.4v0zM451.2 716.8c182.4 0 329.6-147.2 329.6-329.6s-147.2-329.6-329.6-329.6-329.6 147.2-329.6 329.6 147.2 329.6 329.6 329.6zM451.2 774.4c-214.4 0-390.4-176-390.4-390.4s176-390.4 390.4-390.4 390.4 176 390.4 390.4-176 390.4-390.4 390.4v0zM480 220.8h-60.8l-76.8 134.4h-64v-134.4h-60.8v348.8h118.4c41.6 0 70.4-9.6 92.8-25.6 22.4-19.2 35.2-44.8 35.2-80 0-22.4-6.4-41.6-19.2-57.6-9.6-12.8-25.6-25.6-41.6-35.2l73.6-134.4 3.2-16zM278.4 406.4h57.6c19.2 0 35.2 6.4 48 16s19.2 22.4 19.2 38.4c0 19.2-6.4 32-16 44.8-12.8 9.6-28.8 16-48 16h-60.8v-115.2zM595.2 217.6c-22.4 0-44.8 3.2-60.8 12.8-19.2 9.6-32 22.4-41.6 32l-3.2 6.4c-6.4 12.8-12.8 25.6-12.8 41.6v9.6h60.8v-9.6c0-9.6 3.2-19.2 16-32 12.8-9.6 25.6-12.8 38.4-12.8 19.2 0 35.2 3.2 44.8 6.4l3.2 3.2c6.4 6.4 12.8 9.6 12.8 22.4v0c3.2 9.6-3.2 19.2-9.6 22.4-6.4 6.4-16 9.6-28.8 12.8-6.4 3.2-12.8 3.2-16 6.4-19.2 3.2-38.4 9.6-57.6 19.2-16 9.6-25.6 16-32 28.8-9.6 12.8-12.8 25.6-12.8 38.4 0 25.6 9.6 48 28.8 64 22.4 16 44.8 25.6 76.8 25.6s54.4-6.4 76.8-25.6c19.2-16 28.8-38.4 28.8-67.2v-6.4h-60.8v6.4c0 9.6-3.2 19.2-12.8 28.8-9.6 6.4-19.2 12.8-35.2 12.8-12.8 0-25.6-3.2-32-9.6s-12.8-12.8-12.8-25.6c0-9.6 3.2-12.8 9.6-19.2 6.4-3.2 22.4-9.6 41.6-12.8s38.4-9.6 57.6-19.2c16-9.6 28.8-16 35.2-28.8 9.6-12.8 9.6-25.6 9.6-41.6 0-25.6-9.6-44.8-32-64-19.2-19.2-48-25.6-80-25.6z" />
<glyph unicode="&#xe985;" glyph-name="dds__currency-coins-yen" d="M572.8 899.2c-86.4 0-166.4-28.8-233.6-76.8 35.2 9.6 70.4 12.8 108.8 12.8 19.2 0 38.4 0 54.4-3.2 22.4 6.4 44.8 6.4 70.4 6.4 182.4 0 329.6-147.2 329.6-329.6 0-22.4-3.2-48-6.4-70.4 3.2-19.2 3.2-35.2 3.2-54.4 0-38.4-6.4-73.6-12.8-108.8 48 64 76.8 144 76.8 233.6 0 217.6-172.8 390.4-390.4 390.4v0zM451.2 716.8c182.4 0 329.6-147.2 329.6-329.6s-147.2-329.6-329.6-329.6-329.6 147.2-329.6 329.6 147.2 329.6 329.6 329.6zM451.2 774.4c-214.4 0-390.4-176-390.4-390.4s176-390.4 390.4-390.4 390.4 176 390.4 390.4-176 390.4-390.4 390.4v0zM451.2 390.4l99.2 217.6h70.4l-121.6-236.8h86.4v-38.4h-105.6v-57.6h105.6v-38.4h-105.6v-108.8h-60.8v105.6h-105.6v38.4h102.4v54.4h-102.4v38.4h86.4l-121.6 236.8h70.4l102.4-211.2z" />
<glyph unicode="&#xe986;" glyph-name="dds__cursor" d="M824.8 418.592l-625.6 443.744 95.52-761.12 133.248 181.056 148.416-248.576 174.976 104.8-148.96 248.16 222.4 31.936zM668.736 159.136l-71.552-42.816-164.096 274.688-97.472-132.448-59.648 475.488 390.816-277.216-162.752-23.296 164.672-274.368z" />
<glyph unicode="&#xe987;" glyph-name="dds__cursor-clock" d="M102.112 753.408l87.904-699.936 121.76 165.536 132.992-222.72 162.784 97.536-133.44 222.368 203.424 29.12-575.456 408.128zM524.992 114.4l-59.392-35.52-148.576 248.832-86.048-116.96-52.032 414.304 340.64-241.536-143.744-20.64 149.152-248.48zM706.432 899.712c-118.816 0-215.456-96.64-215.456-215.456s96.64-215.456 215.456-215.456 215.456 96.64 215.456 215.456-96.64 215.456-215.456 215.456zM706.432 528.992c-85.6 0-155.232 69.664-155.232 155.232s69.664 155.232 155.232 155.232 155.232-69.664 155.232-155.232-69.632-155.232-155.232-155.232zM716.576 792.896h-60.224v-158.72h158.72v60.224h-98.464z" />
<glyph unicode="&#xe988;" glyph-name="dds__dashboard" d="M395.296 274.816v-218.368h-274.816v218.368h274.816zM455.52 335.072h-395.296v-338.816h395.296v338.816zM395.296 839.52v-331.296h-274.816v331.296h274.816zM455.52 899.776h-395.296v-451.776h395.296v451.776zM903.52 444.224v-387.776h-274.816v387.776h274.816zM963.776 504.48h-395.296v-508.256h395.296v508.256zM903.52 839.52v-161.888h-274.816v161.888h274.816zM963.776 899.776h-395.296v-282.368h395.296v282.368z" />
<glyph unicode="&#xe989;" glyph-name="dds__data-center" d="M841.408 739.296v116.224h-658.816v-116.224h-63.648v-698.816h786.144v698.816h-63.68zM242.816 795.296h538.368v-55.52h-538.368v55.52zM574.112 100.704h-124.224v176.48h124.224v-176.48zM844.832 100.704h-210.496v236.704h-244.704v-236.704h-210.464v578.368h665.664v-578.368zM313.888 605.056h60.224v-60.224h-60.224v60.224zM482.272 605.056h60.224v-60.224h-60.224v60.224zM650.688 605.056h60.224v-60.224h-60.224v60.224zM313.888 467.616h60.224v-60.224h-60.224v60.224zM482.272 467.616h60.224v-60.224h-60.224v60.224zM650.688 467.616h60.224v-60.224h-60.224v60.224z" />
<glyph unicode="&#xe98a;" glyph-name="dds__data-compute" d="M707.232-3.84h256.352v256.352h-256.352v-256.352zM767.456 192.288h135.904v-135.904h-135.904v135.904zM384 319.808h256.352v256.352h-256.352v-256.352zM444.224 515.936h135.904v-135.904h-135.904v135.904zM384 154.464h-161.184l-3.904 488.992h97.824v256.352h-256.288v-256.352h98.24l4.384-549.216h220.928v-98.048h256.352v256.352h-256.352v-98.048zM120.64 839.584h135.904v-135.904h-135.904v135.904zM444.224 192.288h135.904v-135.904h-135.904v135.904zM707.232 899.84v-256.352h256.352v256.352h-256.352zM903.296 703.712h-135.904v135.904h135.904v-135.904zM384 643.456h256.352v256.352h-256.352v-256.352zM444.224 839.584h135.904v-135.904h-135.904v135.904z" />
<glyph unicode="&#xe98b;" glyph-name="dds__datastore" d="M512 899.392c-205.632 0-366.72-85.408-366.72-194.496 0-5.184 0-519.104 0.48-524.096 9.76-104.992 167.2-184.192 366.24-184.192 197.376 0 354.72 78.432 366.048 182.4 0.672 5.856 0.672 520.736 0.672 525.92 0 109.088-161.056 194.496-366.72 194.496zM512 839.168c180.64 0 306.464-70.784 306.464-134.272s-125.824-134.336-306.464-134.336-306.464 70.784-306.464 134.336 125.824 134.272 306.464 134.272zM512 56.832c-175.936 0-300.448 66.976-306.112 127.52-0.192 9.088-0.288 262.624-0.288 412.384 65.056-52.416 176.864-86.432 306.432-86.432 129.632 0 241.408 33.984 306.432 86.432-0.064-150.048-0.192-403.104-0.288-411.232-6.688-62.176-131.36-128.672-306.112-128.672z" />
<glyph unicode="&#xe98c;" glyph-name="dds__d-display" d="M962.752 292.992v509.376h-901.536v-509.376h352.064v-139.68h-140.896v-60.224h479.168v60.224h-140.928v139.68h352.096zM550.432 153.888h-76.896v139.008h76.896v-139.008zM121.472 353.216v388.896h781.056v-388.896h-781.056zM442.72 549.952c8.64 5.056 15.84 11.776 21.408 19.808 7.584 10.944 11.424 22.4 11.424 34.24 0 23.456-7.232 42.112-21.6 55.456-14.24 13.28-34.016 20-58.72 20-23.424 0-43.040-7.072-58.4-20.896-15.424-13.984-23.232-31.776-23.232-52.832v-4.544h40.928v4.544c0 11.84 3.52 20.96 10.88 27.936 7.296 7.008 17.28 10.528 29.824 10.528 26.88 0 39.424-12.544 39.424-39.52 0-11.872-3.712-20.992-11.424-27.808-7.872-7.008-18.528-10.464-32.48-10.72h-28.48v-35.072h28.416c15.712-0.224 27.776-3.872 35.808-10.944 8-7.008 11.872-16.832 11.872-30.176 0-13.76-3.648-24.288-10.88-31.36-7.168-7.168-17.984-10.752-32.128-10.752-13.408 0-23.776 3.456-31.52 10.72-7.712 7.008-11.456 16.288-11.456 28.352v4.544h-41.056v-4.544c0-22.24 8-40.352 23.712-53.888 15.52-13.408 35.808-20.224 60.352-20.224 24.576 0 44.896 7.072 60.352 20.992 15.648 13.984 23.584 33.12 23.584 56.864 0 15.456-4.128 28.832-12.16 39.712-6.176 8.288-14.432 14.816-24.48 19.52zM657.664 660.896c-17.248 10.048-37.472 15.104-60.128 15.104h-75.296v-259.776h73.984c23.104 0.224 43.776 5.344 61.344 15.232 17.6 9.952 31.36 24.352 40.832 42.88 9.472 18.368 14.24 40 14.24 64.224v16c-0.128 23.648-4.928 44.928-14.4 63.36-9.536 18.592-23.168 32.992-40.576 42.944zM670.848 539.36c0-28.064-6.752-49.824-20.064-64.768-13.248-14.752-32.128-22.24-56.128-22.24h-30.304v187.584h34.016c23.424-0.224 40.928-7.584 53.536-22.464s18.944-36.224 18.944-63.456v-14.656z" />
</font>
</defs>
</svg>
