<?xml version="1.0" encoding="utf-8"?>
<!-- Generator: Adobe Illustrator 25.1.0, SVG Export Plug-In . SVG Version: 6.00 Build 0)  -->
<svg version="1.1" id="Camada_1" xmlns="http://www.w3.org/2000/svg" xmlns:xlink="http://www.w3.org/1999/xlink" x="0px" y="0px"
	 viewBox="0 0 100 100" style="enable-background:new 0 0 100 100;" xml:space="preserve">
<style type="text/css">
	.st0{fill:#0076CE;}
</style>
<path id="Caminho_2497" class="st0" d="M82.64,25.52H17.36c-2.43-0.15-4.52,1.7-4.67,4.13c-0.01,0.18-0.01,0.36,0,0.54v39.64
	c-0.15,2.43,1.7,4.52,4.13,4.67c0.18,0.01,0.36,0.01,0.54,0h65.28c2.43,0.15,4.52-1.7,4.67-4.13c0.01-0.18,0.01-0.36,0-0.54V30.18
	c0.15-2.43-1.7-4.52-4.13-4.67C83,25.51,82.82,25.51,82.64,25.52z M52.33,69.82v2.33h-4.67v-2.33H52.33z M82.64,67.48H17.36v-37.3
	h65.28L82.64,67.48z"/>
</svg>
